solid controller_simple_bottom
facet normal -0.13052622774075054 -0.9914448566974202 -4.5114542450123244e-08
  outer loop
    vertex -251.92928705221289 1.4014757897383054 -3.6443296343525047
    vertex -264.8702391242214 3.1051858661994194 -19.64432963435225
    vertex -251.92928705221252 1.4014757897383054 -19.64432963435243
  endloop
endfacet
facet normal -0.13052622774075054 -0.9914448566974202 -4.5114542450123244e-08
  outer loop
    vertex -264.8702391242214 3.1051858661994194 -19.64432963435225
    vertex -251.92928705221289 1.4014757897383054 -3.6443296343525047
    vertex -264.87023930733886 3.105184475284882 -3.6443296343524185
  endloop
endfacet
facet normal 0.0 -1.0 0.0
  outer loop
    vertex -141.92928705221286 11.40147578973831 -19.64432963435231
    vertex -201.92928705221286 11.40147578973831 -3.644329634352469
    vertex -201.92928705221274 11.40147578973831 -19.644329634352363
  endloop
endfacet
facet normal 0.0 -1.0 0.0
  outer loop
    vertex -201.92928705221286 11.40147578973831 -3.644329634352469
    vertex -141.92928705221286 11.40147578973831 -19.64432963435231
    vertex -141.92928705221271 11.40147578973831 -4.644329634352378
  endloop
endfacet
facet normal 0.0 -1.0 0.0
  outer loop
    vertex -201.92928705221286 11.40147578973831 -3.644329634352469
    vertex -141.92928705221271 11.40147578973831 -4.644329634352378
    vertex -141.92928705221271 11.40147578973831 -3.6443296343523777
  endloop
endfacet
facet normal -0.9238795325112857 -0.38268343236509256 -1.0697763679283766e-14
  outer loop
    vertex -300.2255783666664 38.46052353461226 -3.6443296343521423
    vertex -295.23055724143484 26.40147578973828 -19.64432963435239
    vertex -295.23055724143467 26.40147578973828 -3.6443296343522915
  endloop
endfacet
facet normal -0.9238795325112857 -0.38268343236509256 -1.0697763679283766e-14
  outer loop
    vertex -295.23055724143484 26.40147578973828 -19.64432963435239
    vertex -300.2255783666664 38.46052353461226 -3.6443296343521423
    vertex -300.2255783666659 38.46052353461226 -19.644329634352392
  endloop
endfacet
facet normal -0.9914448613738129 0.1305261922200335 -1.7265221943634125e-14
  outer loop
    vertex -300.2255783666664 64.3424280448643 -3.6443296343521423
    vertex -301.92928705221254 51.401475789738285 -19.64432963435252
    vertex -301.9292870522127 51.401475789738285 -3.6443296343523537
  endloop
endfacet
facet normal -0.9914448613738129 0.1305261922200335 -1.7265221943634125e-14
  outer loop
    vertex -301.92928705221254 51.401475789738285 -19.64432963435252
    vertex -300.2255783666664 64.3424280448643 -3.6443296343521423
    vertex -300.22557836666607 64.3424280448643 -19.644329634352427
  endloop
endfacet
facet normal 0.13052619222005143 0.9914448613738105 3.327800828444394e-15
  outer loop
    vertex -251.92928705221289 101.40147578973821 -3.6443296343525047
    vertex -238.98833479708665 99.69776710419166 -19.644329634352324
    vertex -251.92928705221263 101.40147578973821 -19.64432963435247
  endloop
endfacet
facet normal 0.13052619222005143 0.9914448613738105 3.327800828444394e-15
  outer loop
    vertex -238.98833479708665 99.69776710419166 -19.644329634352324
    vertex -251.92928705221289 101.40147578973821 -3.6443296343525047
    vertex -238.98833479708682 99.69776710419161 -3.644329634352434
  endloop
endfacet
facet normal -0.7933533402912323 0.6087614290087244 5.474920027935977e-15
  outer loop
    vertex -287.28462611154015 86.75681484906549 -3.6443296343524465
    vertex -295.23055724143484 76.40147578973826 -19.64432963435239
    vertex -295.23055724143467 76.40147578973826 -3.6443296343522915
  endloop
endfacet
facet normal -0.7933533402912323 0.6087614290087244 5.474920027935977e-15
  outer loop
    vertex -295.23055724143484 76.40147578973826 -19.64432963435239
    vertex -287.28462611154015 86.75681484906549 -3.6443296343524465
    vertex -287.28462611154015 86.75681484906555 -19.644329634352353
  endloop
endfacet
facet normal 0.38268343236509555 0.9238795325112844 1.335265418289094e-15
  outer loop
    vertex -238.98833479708682 99.69776710419161 -3.644329634352434
    vertex -226.92928705221317 94.70274597896017 -19.64432963435224
    vertex -238.98833479708665 99.69776710419166 -19.644329634352324
  endloop
endfacet
facet normal 0.38268343236509555 0.9238795325112844 1.335265418289094e-15
  outer loop
    vertex -226.92928705221317 94.70274597896017 -19.64432963435224
    vertex -238.98833479708682 99.69776710419161 -3.644329634352434
    vertex -226.92928705221297 94.70274597896017 -3.644329634352341
  endloop
endfacet
facet normal -0.7933533402912284 -0.6087614290087295 1.1708754509136109e-14
  outer loop
    vertex -287.2846261115399 16.04613673041093 -3.6443296343524665
    vertex -295.23055724143484 26.40147578973828 -19.64432963435239
    vertex -287.28462611154015 16.046136730410918 -19.64432963435231
  endloop
endfacet
facet normal -0.7933533402912284 -0.6087614290087295 1.1708754509136109e-14
  outer loop
    vertex -295.23055724143484 26.40147578973828 -19.64432963435239
    vertex -287.2846261115399 16.04613673041093 -3.6443296343524665
    vertex -295.23055724143467 26.40147578973828 -3.6443296343522915
  endloop
endfacet
facet normal 0.6087614290087126 0.7933533402912414 -5.310879352368255e-15
  outer loop
    vertex -226.92928705221317 94.70274597896017 -19.64432963435224
    vertex -216.57394799288534 86.75681484906555 -3.6443296343524665
    vertex -216.57394799288542 86.75681484906555 -19.644329634352477
  endloop
endfacet
facet normal 0.6087614290087126 0.7933533402912414 -5.310879352368255e-15
  outer loop
    vertex -216.57394799288534 86.75681484906555 -3.6443296343524665
    vertex -226.92928705221317 94.70274597896017 -19.64432963435224
    vertex -226.92928705221297 94.70274597896017 -3.644329634352341
  endloop
endfacet
facet normal 0.1305261922200523 -0.9914448613738105 2.9933031159763524e-15
  outer loop
    vertex -238.98833479708665 3.105184475284882 -19.644329634352324
    vertex -251.92928705221289 1.4014757897383054 -3.6443296343525047
    vertex -251.92928705221252 1.4014757897383054 -19.64432963435243
  endloop
endfacet
facet normal 0.1305261922200523 -0.9914448613738105 2.9933031159763524e-15
  outer loop
    vertex -251.92928705221289 1.4014757897383054 -3.6443296343525047
    vertex -238.98833479708665 3.105184475284882 -19.644329634352324
    vertex -238.98833479708682 3.1051844752849043 -3.644329634352434
  endloop
endfacet
facet normal -0.13052619222005285 0.9914448613738103 -1.888548631082968e-15
  outer loop
    vertex -264.8702393073387 99.69776710419161 -19.644329634352452
    vertex -251.92928705221289 101.40147578973821 -3.6443296343525047
    vertex -251.92928705221263 101.40147578973821 -19.64432963435247
  endloop
endfacet
facet normal -0.13052619222005285 0.9914448613738103 -1.888548631082968e-15
  outer loop
    vertex -251.92928705221289 101.40147578973821 -3.6443296343525047
    vertex -264.8702393073387 99.69776710419161 -19.644329634352452
    vertex -264.87023930733886 99.69776710419161 -3.6443296343524185
  endloop
endfacet
facet normal -0.3826834323650908 0.9238795325112865 2.3395399140593064e-16
  outer loop
    vertex -276.92928705221277 94.70274597896017 -19.644329634352346
    vertex -264.87023930733886 99.69776710419161 -3.6443296343524185
    vertex -264.8702393073387 99.69776710419161 -19.644329634352452
  endloop
endfacet
facet normal -0.3826834323650908 0.9238795325112865 2.3395399140593064e-16
  outer loop
    vertex -264.87023930733886 99.69776710419161 -3.6443296343524185
    vertex -276.92928705221277 94.70274597896017 -19.644329634352346
    vertex -276.9292870522127 94.70274597896011 -3.644329634352523
  endloop
endfacet
facet normal -0.9914448613738123 -0.13052619222003803 -2.3015608403113244e-14
  outer loop
    vertex -301.9292870522127 51.401475789738285 -3.6443296343523537
    vertex -300.2255783666659 38.46052353461226 -19.644329634352392
    vertex -300.2255783666664 38.46052353461226 -3.6443296343521423
  endloop
endfacet
facet normal -0.9914448613738123 -0.13052619222003803 -2.3015608403113244e-14
  outer loop
    vertex -300.2255783666659 38.46052353461226 -19.644329634352392
    vertex -301.9292870522127 51.401475789738285 -3.6443296343523537
    vertex -301.92928705221254 51.401475789738285 -19.64432963435252
  endloop
endfacet
facet normal -0.6087614290087254 -0.7933533402912317 6.791177413955267e-15
  outer loop
    vertex -276.9292870522127 8.100205600516357 -3.644329634352523
    vertex -287.28462611154015 16.046136730410918 -19.64432963435231
    vertex -276.92928705221277 8.100205600516379 -19.644329634352346
  endloop
endfacet
facet normal -0.6087614290087254 -0.7933533402912317 6.791177413955267e-15
  outer loop
    vertex -287.28462611154015 16.046136730410918 -19.64432963435231
    vertex -276.9292870522127 8.100205600516357 -3.644329634352523
    vertex -287.2846261115399 16.04613673041093 -3.6443296343524665
  endloop
endfacet
facet normal -0.5951128791353095 0.8036421225192731 3.032996859422279e-16
  outer loop
    vertex -216.57394799288534 86.75681484906555 -3.6443296343524665
    vertex -201.92928705221271 97.60147578973826 -19.644329634352353
    vertex -216.57394799288542 86.75681484906555 -19.644329634352477
  endloop
endfacet
facet normal -0.5951128791353095 0.8036421225192731 3.032996859422279e-16
  outer loop
    vertex -201.92928705221271 97.60147578973826 -19.644329634352353
    vertex -216.57394799288534 86.75681484906555 -3.6443296343524665
    vertex -201.92928705221286 97.60147578973822 -3.644329634352469
  endloop
endfacet
facet normal 0.38268343236509605 -0.9238795325112843 1.3459282255110094e-15
  outer loop
    vertex -226.92928705221317 8.100205600516357 -19.64432963435224
    vertex -238.98833479708682 3.1051844752849043 -3.644329634352434
    vertex -238.98833479708665 3.105184475284882 -19.644329634352324
  endloop
endfacet
facet normal 0.38268343236509605 -0.9238795325112843 1.3459282255110094e-15
  outer loop
    vertex -238.98833479708682 3.1051844752849043 -3.644329634352434
    vertex -226.92928705221317 8.100205600516357 -19.64432963435224
    vertex -226.92928705221297 8.100205600516379 -3.644329634352341
  endloop
endfacet
facet normal -0.6087614290087214 0.7933533402912345 4.092017705278739e-15
  outer loop
    vertex -287.28462611154015 86.75681484906549 -3.6443296343524465
    vertex -276.92928705221277 94.70274597896017 -19.644329634352346
    vertex -287.28462611154015 86.75681484906555 -19.644329634352353
  endloop
endfacet
facet normal -0.6087614290087214 0.7933533402912345 4.092017705278739e-15
  outer loop
    vertex -276.92928705221277 94.70274597896017 -19.644329634352346
    vertex -287.28462611154015 86.75681484906549 -3.6443296343524465
    vertex -276.9292870522127 94.70274597896011 -3.644329634352523
  endloop
endfacet
facet normal 0.6087614290087008 -0.7933533402912505 -4.1503462435994595e-15
  outer loop
    vertex -222.62698797901447 11.40147578973831 -3.644329634352554
    vertex -226.92928705221317 8.100205600516357 -19.64432963435224
    vertex -222.62698797901456 11.401475789738287 -19.644329634352363
  endloop
endfacet
facet normal 0.6087614290087008 -0.7933533402912505 -4.1503462435994595e-15
  outer loop
    vertex -226.92928705221317 8.100205600516357 -19.64432963435224
    vertex -222.62698797901447 11.40147578973831 -3.644329634352554
    vertex -226.92928705221297 8.100205600516379 -3.644329634352341
  endloop
endfacet
facet normal -0.9238795325112839 0.3826834323650971 -5.356930489025076e-15
  outer loop
    vertex -295.23055724143467 76.40147578973826 -3.6443296343522915
    vertex -300.22557836666607 64.3424280448643 -19.644329634352427
    vertex -300.2255783666664 64.3424280448643 -3.6443296343521423
  endloop
endfacet
facet normal -0.9238795325112839 0.3826834323650971 -5.356930489025076e-15
  outer loop
    vertex -300.22557836666607 64.3424280448643 -19.644329634352427
    vertex -295.23055724143467 76.40147578973826 -3.6443296343522915
    vertex -295.23055724143484 76.40147578973826 -19.64432963435239
  endloop
endfacet
facet normal -0.382683400392923 -0.9238795457545902 -4.3577300688944065e-08
  outer loop
    vertex -264.8702391242214 3.1051858661994194 -19.64432963435225
    vertex -276.9292870522127 8.100205600516357 -3.644329634352523
    vertex -276.92928705221277 8.100205600516379 -19.644329634352346
  endloop
endfacet
facet normal -0.382683400392923 -0.9238795457545902 -4.3577300688944065e-08
  outer loop
    vertex -276.9292870522127 8.100205600516357 -3.644329634352523
    vertex -264.8702391242214 3.1051858661994194 -19.64432963435225
    vertex -264.87023930733886 3.105184475284882 -3.6443296343524185
  endloop
endfacet
facet normal 1.2533184366879216e-16 1.0 2.176405667028679e-15
  outer loop
    vertex -201.92928705221286 97.60147578973822 -3.644329634352469
    vertex -141.92928705221286 97.60147578973825 -19.64432963435231
    vertex -201.92928705221271 97.60147578973826 -19.644329634352353
  endloop
endfacet
facet normal 1.2533184366879216e-16 1.0 2.176405667028679e-15
  outer loop
    vertex -141.92928705221286 97.60147578973825 -19.64432963435231
    vertex -201.92928705221286 97.60147578973822 -3.644329634352469
    vertex -141.92928705221271 97.60147578973822 -4.644329634352378
  endloop
endfacet
facet normal 1.2533184366879216e-16 1.0 2.176405667028679e-15
  outer loop
    vertex -141.92928705221271 97.60147578973822 -4.644329634352378
    vertex -201.92928705221286 97.60147578973822 -3.644329634352469
    vertex -141.92928705221271 97.60147578973822 -3.6443296343523777
  endloop
endfacet
facet normal 0.608761429008716 -0.7933533402912387 -2.958460077293969e-15
  outer loop
    vertex -216.57394799288534 16.04613673041093 -3.6443296343524665
    vertex -222.62698797901456 11.401475789738287 -19.644329634352363
    vertex -216.57394799288542 16.04613673041093 -19.644329634352477
  endloop
endfacet
facet normal 0.608761429008716 -0.7933533402912387 -2.958460077293969e-15
  outer loop
    vertex -222.62698797901456 11.401475789738287 -19.644329634352363
    vertex -216.57394799288534 16.04613673041093 -3.6443296343524665
    vertex -222.62698797901447 11.40147578973831 -3.644329634352554
  endloop
endfacet
facet normal -0.30231671599169585 -0.9532075341875956 -2.0941546006633446e-16
  outer loop
    vertex -201.92928705221274 11.40147578973831 -19.644329634352363
    vertex -216.57394799288534 16.04613673041093 -3.6443296343524665
    vertex -216.57394799288542 16.04613673041093 -19.644329634352477
  endloop
endfacet
facet normal -0.30231671599169585 -0.9532075341875956 -2.0941546006633446e-16
  outer loop
    vertex -216.57394799288534 16.04613673041093 -3.6443296343524665
    vertex -201.92928705221274 11.40147578973831 -19.644329634352363
    vertex -201.92928705221286 11.40147578973831 -3.644329634352469
  endloop
endfacet
facet normal 1.0 -0.0 -0.0
  outer loop
    vertex -141.92928705221271 97.60147578973822 -4.644329634352378
    vertex -141.92928705221271 11.40147578973831 -3.6443296343523777
    vertex -141.92928705221271 11.40147578973831 -4.644329634352378
  endloop
endfacet
facet normal 1.0 -0.0 -0.0
  outer loop
    vertex -141.92928705221271 11.40147578973831 -3.6443296343523777
    vertex -141.92928705221271 97.60147578973822 -4.644329634352378
    vertex -141.92928705221271 97.60147578973822 -3.6443296343523777
  endloop
endfacet
facet normal -3.7470027081099033e-16 -0.0 1.0
  outer loop
    vertex -300.2255783666664 38.46052353461226 -3.6443296343521423
    vertex -300.2255783666664 64.3424280448643 -3.6443296343521423
    vertex -301.9292870522127 51.401475789738285 -3.6443296343523537
  endloop
endfacet
facet normal -3.7470027081099033e-16 -0.0 1.0
  outer loop
    vertex -300.2255783666664 64.3424280448643 -3.6443296343521423
    vertex -300.2255783666664 38.46052353461226 -3.6443296343521423
    vertex -295.23055724143467 26.40147578973828 -3.6443296343522915
  endloop
endfacet
facet normal -3.7470027081099033e-16 -0.0 1.0
  outer loop
    vertex -300.2255783666664 64.3424280448643 -3.6443296343521423
    vertex -295.23055724143467 26.40147578973828 -3.6443296343522915
    vertex -295.23055724143467 76.40147578973826 -3.6443296343522915
  endloop
endfacet
facet normal -3.7470027081099033e-16 -0.0 1.0
  outer loop
    vertex -295.23055724143467 76.40147578973826 -3.6443296343522915
    vertex -295.23055724143467 26.40147578973828 -3.6443296343522915
    vertex -287.2846261115399 16.04613673041093 -3.6443296343524665
  endloop
endfacet
facet normal -3.7470027081099033e-16 -0.0 1.0
  outer loop
    vertex -295.23055724143467 76.40147578973826 -3.6443296343522915
    vertex -287.2846261115399 16.04613673041093 -3.6443296343524665
    vertex -287.28462611154015 86.75681484906549 -3.6443296343524465
  endloop
endfacet
facet normal -3.7470027081099033e-16 -0.0 1.0
  outer loop
    vertex -287.28462611154015 86.75681484906549 -3.6443296343524465
    vertex -287.2846261115399 16.04613673041093 -3.6443296343524665
    vertex -276.9292870522127 94.70274597896011 -3.644329634352523
  endloop
endfacet
facet normal -3.7470027081099033e-16 -0.0 1.0
  outer loop
    vertex -276.9292870522127 94.70274597896011 -3.644329634352523
    vertex -287.2846261115399 16.04613673041093 -3.6443296343524665
    vertex -276.9292870522127 8.100205600516357 -3.644329634352523
  endloop
endfacet
facet normal -3.7470027081099033e-16 -0.0 1.0
  outer loop
    vertex -276.9292870522127 94.70274597896011 -3.644329634352523
    vertex -276.9292870522127 8.100205600516357 -3.644329634352523
    vertex -264.87023930733886 3.105184475284882 -3.6443296343524185
  endloop
endfacet
facet normal -3.7470027081099033e-16 -0.0 1.0
  outer loop
    vertex -276.9292870522127 94.70274597896011 -3.644329634352523
    vertex -264.87023930733886 3.105184475284882 -3.6443296343524185
    vertex -264.87023930733886 99.69776710419161 -3.6443296343524185
  endloop
endfacet
facet normal -3.7470027081099033e-16 -0.0 1.0
  outer loop
    vertex -264.87023930733886 99.69776710419161 -3.6443296343524185
    vertex -264.87023930733886 3.105184475284882 -3.6443296343524185
    vertex -251.92928705221289 1.4014757897383054 -3.6443296343525047
  endloop
endfacet
facet normal -3.7470027081099033e-16 -0.0 1.0
  outer loop
    vertex -264.87023930733886 99.69776710419161 -3.6443296343524185
    vertex -251.92928705221289 1.4014757897383054 -3.6443296343525047
    vertex -251.92928705221289 101.40147578973821 -3.6443296343525047
  endloop
endfacet
facet normal -3.7470027081099033e-16 -0.0 1.0
  outer loop
    vertex -251.92928705221289 101.40147578973821 -3.6443296343525047
    vertex -251.92928705221289 1.4014757897383054 -3.6443296343525047
    vertex -238.98833479708682 3.1051844752849043 -3.644329634352434
  endloop
endfacet
facet normal -3.7470027081099033e-16 -0.0 1.0
  outer loop
    vertex -251.92928705221289 101.40147578973821 -3.6443296343525047
    vertex -238.98833479708682 3.1051844752849043 -3.644329634352434
    vertex -238.98833479708682 99.69776710419161 -3.644329634352434
  endloop
endfacet
facet normal -3.7470027081099033e-16 -0.0 1.0
  outer loop
    vertex -238.98833479708682 99.69776710419161 -3.644329634352434
    vertex -238.98833479708682 3.1051844752849043 -3.644329634352434
    vertex -226.92928705221297 8.100205600516379 -3.644329634352341
  endloop
endfacet
facet normal -3.7470027081099033e-16 -0.0 1.0
  outer loop
    vertex -238.98833479708682 99.69776710419161 -3.644329634352434
    vertex -226.92928705221297 8.100205600516379 -3.644329634352341
    vertex -226.92928705221297 94.70274597896017 -3.644329634352341
  endloop
endfacet
facet normal -3.7470027081099033e-16 -0.0 1.0
  outer loop
    vertex -226.92928705221297 94.70274597896017 -3.644329634352341
    vertex -226.92928705221297 8.100205600516379 -3.644329634352341
    vertex -222.62698797901447 11.40147578973831 -3.644329634352554
  endloop
endfacet
facet normal -3.7470027081099033e-16 -0.0 1.0
  outer loop
    vertex -226.92928705221297 94.70274597896017 -3.644329634352341
    vertex -222.62698797901447 11.40147578973831 -3.644329634352554
    vertex -216.57394799288534 86.75681484906555 -3.6443296343524665
  endloop
endfacet
facet normal -3.7470027081099033e-16 -0.0 1.0
  outer loop
    vertex -216.57394799288534 86.75681484906555 -3.6443296343524665
    vertex -222.62698797901447 11.40147578973831 -3.644329634352554
    vertex -216.57394799288534 16.04613673041093 -3.6443296343524665
  endloop
endfacet
facet normal -3.7470027081099033e-16 -0.0 1.0
  outer loop
    vertex -216.57394799288534 86.75681484906555 -3.6443296343524665
    vertex -216.57394799288534 16.04613673041093 -3.6443296343524665
    vertex -201.92928705221286 11.40147578973831 -3.644329634352469
  endloop
endfacet
facet normal -3.7470027081099033e-16 -0.0 1.0
  outer loop
    vertex -216.57394799288534 86.75681484906555 -3.6443296343524665
    vertex -201.92928705221286 11.40147578973831 -3.644329634352469
    vertex -201.92928705221286 97.60147578973822 -3.644329634352469
  endloop
endfacet
facet normal -3.7470027081099033e-16 -0.0 1.0
  outer loop
    vertex -201.92928705221286 97.60147578973822 -3.644329634352469
    vertex -201.92928705221286 11.40147578973831 -3.644329634352469
    vertex -141.92928705221271 11.40147578973831 -3.6443296343523777
  endloop
endfacet
facet normal -3.7470027081099033e-16 -0.0 1.0
  outer loop
    vertex -201.92928705221286 97.60147578973822 -3.644329634352469
    vertex -141.92928705221271 11.40147578973831 -3.6443296343523777
    vertex -141.92928705221271 97.60147578973822 -3.6443296343523777
  endloop
endfacet
endsolid controller_simple_bottom
