solid controller_simple_top
facet normal -0.6087614290089921 -0.7933533402910269 2.9494266443176105e-13
  outer loop
    vertex 30.700475819915678 8.609938086481886 14.976042810246394
    vertex 20.345136760588364 16.555869216376447 -0.023957189753584972
    vertex 30.700475819912178 8.609938086473381 -0.02395718975367521
  endloop
endfacet
facet normal -0.6087614290089921 -0.7933533402910269 2.9494266443176105e-13
  outer loop
    vertex 20.345136760588364 16.555869216376447 -0.023957189753584972
    vertex 30.700475819915678 8.609938086481886 14.976042810246394
    vertex 20.345136760588318 16.555869216376447 14.976042810246394
  endloop
endfacet
facet normal -0.7933533402912332 -0.6087614290087233 1.7799437501984427e-15
  outer loop
    vertex 12.39920563069379 26.911208275703814 14.976042810246394
    vertex 20.345136760588364 16.555869216376447 -0.023957189753584972
    vertex 20.345136760588318 16.555869216376447 14.976042810246394
  endloop
endfacet
facet normal -0.7933533402912332 -0.6087614290087233 1.7799437501984427e-15
  outer loop
    vertex 20.345136760588364 16.555869216376447 -0.023957189753584972
    vertex 12.39920563069379 26.911208275703814 14.976042810246394
    vertex 12.39920563069379 26.911208275703668 -0.023957189753584972
  endloop
endfacet
facet normal -0.13052619222005415 0.99144486137381 -1.7853877173704628e-15
  outer loop
    vertex 42.75952356478968 100.20749959015723 14.976042810246394
    vertex 55.70047581991577 101.91120827570383 -0.02395718975367521
    vertex 42.75952356478973 100.20749959015718 -0.02395718975367521
  endloop
endfacet
facet normal -0.13052619222005415 0.99144486137381 -1.7853877173704628e-15
  outer loop
    vertex 55.70047581991577 101.91120827570383 -0.02395718975367521
    vertex 42.75952356478968 100.20749959015723 14.976042810246394
    vertex 55.70047581991575 101.91120827570383 14.976042810246394
  endloop
endfacet
facet normal 0.38268343236507973 0.9238795325112911 1.956683456330174e-15
  outer loop
    vertex 68.6414280750418 100.20749959015718 14.976042810246394
    vertex 80.70047581991598 95.2124784649258 -0.023957189753584972
    vertex 68.64142807504184 100.20749959015723 -0.02395718975367521
  endloop
endfacet
facet normal 0.38268343236507973 0.9238795325112911 1.956683456330174e-15
  outer loop
    vertex 80.70047581991598 95.2124784649258 -0.023957189753584972
    vertex 68.6414280750418 100.20749959015718 14.976042810246394
    vertex 80.70047581991598 95.2124784649258 14.976042810246394
  endloop
endfacet
facet normal -0.3826834323650853 0.9238795325112888 -1.6717559703526136e-15
  outer loop
    vertex 30.700475819915745 95.2124784649258 -0.023957189753584972
    vertex 42.75952356478968 100.20749959015723 14.976042810246394
    vertex 42.75952356478973 100.20749959015718 -0.02395718975367521
  endloop
endfacet
facet normal -0.3826834323650853 0.9238795325112888 -1.6717559703526136e-15
  outer loop
    vertex 42.75952356478968 100.20749959015723 14.976042810246394
    vertex 30.700475819915745 95.2124784649258 -0.023957189753584972
    vertex 30.700475819915766 95.2124784649258 14.976042810246394
  endloop
endfacet
facet normal 0.3826834323650883 -0.9238795325112875 1.8412434930790555e-15
  outer loop
    vertex 80.70047581991575 8.609938086481863 14.976042810246394
    vertex 68.6414280750418 3.61491696125038 -0.023957189753584972
    vertex 80.7004758199158 8.609938086481842 -0.02395718975367521
  endloop
endfacet
facet normal 0.3826834323650883 -0.9238795325112875 1.8412434930790555e-15
  outer loop
    vertex 68.6414280750418 3.61491696125038 -0.023957189753584972
    vertex 80.70047581991575 8.609938086481863 14.976042810246394
    vertex 68.64142807504174 3.61491696125038 14.976042810246394
  endloop
endfacet
facet normal -0.13052632566355812 -0.9914448438056234 -1.1712136954745219e-07
  outer loop
    vertex 55.70047581991575 1.9112082757038151 14.976042810246225
    vertex 42.75952495683225 3.6149203219411943 -0.023957189753584972
    vertex 55.70047581991618 1.9112082757071087 -0.023957189753584972
  endloop
endfacet
facet normal -0.13052632566355812 -0.9914448438056234 -1.1712136954745219e-07
  outer loop
    vertex 42.75952495683225 3.6149203219411943 -0.023957189753584972
    vertex 55.70047581991575 1.9112082757038151 14.976042810246225
    vertex 42.75952356478964 3.614916961250403 14.976042810246394
  endloop
endfacet
facet normal -0.6087614290087237 0.7933533402912331 -3.125303525218058e-18
  outer loop
    vertex 20.345136760588364 87.26654733503118 14.976042810246394
    vertex 30.700475819915745 95.2124784649258 -0.023957189753584972
    vertex 20.345136760588385 87.26654733503118 -0.02395718975367521
  endloop
endfacet
facet normal -0.6087614290087237 0.7933533402912331 -3.125303525218058e-18
  outer loop
    vertex 30.700475819915745 95.2124784649258 -0.023957189753584972
    vertex 20.345136760588364 87.26654733503118 14.976042810246394
    vertex 30.700475819915766 95.2124784649258 14.976042810246394
  endloop
endfacet
facet normal -0.9914448613738105 -0.1305261922200518 -2.238925228169041e-15
  outer loop
    vertex 5.700475819915744 51.91120827570383 14.976042810246394
    vertex 7.404184505462366 38.970256020577786 -0.023957189753584972
    vertex 7.404184505462343 38.970256020577786 14.976042810246394
  endloop
endfacet
facet normal -0.9914448613738105 -0.1305261922200518 -2.238925228169041e-15
  outer loop
    vertex 7.404184505462366 38.970256020577786 -0.023957189753584972
    vertex 5.700475819915744 51.91120827570383 14.976042810246394
    vertex 5.700475819915789 51.91120827570383 -0.023957189753584972
  endloop
endfacet
facet normal -0.9914448613738105 0.1305261922200512 -2.238925228169041e-15
  outer loop
    vertex 7.404184505462343 64.85216053082992 14.976042810246394
    vertex 5.700475819915789 51.91120827570383 -0.023957189753584972
    vertex 5.700475819915744 51.91120827570383 14.976042810246394
  endloop
endfacet
facet normal -0.9914448613738105 0.1305261922200512 -2.238925228169041e-15
  outer loop
    vertex 5.700475819915789 51.91120827570383 -0.023957189753584972
    vertex 7.404184505462343 64.85216053082992 14.976042810246394
    vertex 7.404184505462366 64.85216053082992 -0.023957189753584972
  endloop
endfacet
facet normal -0.923879532511286 0.3826834323650919 -1.2690782117651702e-15
  outer loop
    vertex 12.399205630693835 76.91120827570383 14.976042810246225
    vertex 7.404184505462366 64.85216053082992 -0.023957189753584972
    vertex 7.404184505462343 64.85216053082992 14.976042810246394
  endloop
endfacet
facet normal -0.923879532511286 0.3826834323650919 -1.2690782117651702e-15
  outer loop
    vertex 7.404184505462366 64.85216053082992 -0.023957189753584972
    vertex 12.399205630693835 76.91120827570383 14.976042810246225
    vertex 12.399205630693835 76.91120827570379 -0.023957189753584972
  endloop
endfacet
facet normal -0.923879532511289 -0.3826834323650844 1.1593119679491882e-15
  outer loop
    vertex 12.39920563069379 26.911208275703814 14.976042810246394
    vertex 7.404184505462366 38.970256020577786 -0.023957189753584972
    vertex 12.39920563069379 26.911208275703668 -0.023957189753584972
  endloop
endfacet
facet normal -0.923879532511289 -0.3826834323650844 1.1593119679491882e-15
  outer loop
    vertex 7.404184505462366 38.970256020577786 -0.023957189753584972
    vertex 12.39920563069379 26.911208275703814 14.976042810246394
    vertex 7.404184505462343 38.970256020577786 14.976042810246394
  endloop
endfacet
facet normal 0.9238795325112877 -0.3826834323650879 -0.0
  outer loop
    vertex 103.99676713436911 38.97025602057774 12.976042810246398
    vertex 99.00174600913765 26.911208275703782 14.976042810246394
    vertex 99.00174600913765 26.911208275703782 12.976042810246398
  endloop
endfacet
facet normal 0.9238795325112877 -0.3826834323650879 -0.0
  outer loop
    vertex 99.00174600913765 26.911208275703782 14.976042810246394
    vertex 103.99676713436911 38.97025602057774 12.976042810246398
    vertex 103.99676713436911 38.97025602057774 14.976042810246394
  endloop
endfacet
facet normal 0.9238795325112882 0.38268343236508645 -0.0
  outer loop
    vertex 99.00174600913783 76.91120827570379 12.976042810246398
    vertex 103.99676713436924 64.85216053082988 14.976042810246394
    vertex 103.99676713436924 64.85216053082988 12.976042810246398
  endloop
endfacet
facet normal 0.9238795325112882 0.38268343236508645 -0.0
  outer loop
    vertex 103.99676713436924 64.85216053082988 14.976042810246394
    vertex 99.00174600913783 76.91120827570379 12.976042810246398
    vertex 99.00174600913783 76.91120827570379 14.976042810246394
  endloop
endfacet
facet normal 0.9914448613738092 -0.13052619222006237 -0.0
  outer loop
    vertex 105.70047581991584 51.91120827570383 12.976042810246398
    vertex 103.99676713436911 38.97025602057774 14.976042810246394
    vertex 103.99676713436911 38.97025602057774 12.976042810246398
  endloop
endfacet
facet normal 0.9914448613738092 -0.13052619222006237 -0.0
  outer loop
    vertex 103.99676713436911 38.97025602057774 14.976042810246394
    vertex 105.70047581991584 51.91120827570383 12.976042810246398
    vertex 105.70047581991584 51.91120827570383 14.976042810246394
  endloop
endfacet
facet normal 0.13052619222005413 0.99144486137381 1.790319270736474e-15
  outer loop
    vertex 55.70047581991575 101.91120827570383 14.976042810246394
    vertex 68.64142807504184 100.20749959015723 -0.02395718975367521
    vertex 55.70047581991577 101.91120827570383 -0.02395718975367521
  endloop
endfacet
facet normal 0.13052619222005413 0.99144486137381 1.790319270736474e-15
  outer loop
    vertex 68.64142807504184 100.20749959015723 -0.02395718975367521
    vertex 55.70047581991575 101.91120827570383 14.976042810246394
    vertex 68.6414280750418 100.20749959015718 14.976042810246394
  endloop
endfacet
facet normal 0.9914448613738103 0.1305261922200525 -0.0
  outer loop
    vertex 103.99676713436924 64.85216053082988 12.976042810246398
    vertex 105.70047581991584 51.91120827570383 14.976042810246394
    vertex 105.70047581991584 51.91120827570383 12.976042810246398
  endloop
endfacet
facet normal 0.9914448613738103 0.1305261922200525 -0.0
  outer loop
    vertex 105.70047581991584 51.91120827570383 14.976042810246394
    vertex 103.99676713436924 64.85216053082988 12.976042810246398
    vertex 103.99676713436924 64.85216053082988 14.976042810246394
  endloop
endfacet
facet normal 0.6087614290087224 -0.7933533402912338 1.506403260327798e-15
  outer loop
    vertex 85.0027748931141 11.911208275703808 14.976042810246394
    vertex 80.7004758199158 8.609938086481842 -0.02395718975367521
    vertex 85.0027748931141 11.911208275703808 -0.02395718975367521
  endloop
endfacet
facet normal 0.6087614290087224 -0.7933533402912338 1.506403260327798e-15
  outer loop
    vertex 80.7004758199158 8.609938086481842 -0.02395718975367521
    vertex 85.0027748931141 11.911208275703808 14.976042810246394
    vertex 80.70047581991575 8.609938086481863 14.976042810246394
  endloop
endfacet
facet normal -0.7933533402912359 0.6087614290087199 -1.5176171590508048e-15
  outer loop
    vertex 12.399205630693835 76.91120827570383 14.976042810246225
    vertex 20.345136760588385 87.26654733503118 -0.02395718975367521
    vertex 12.399205630693835 76.91120827570379 -0.023957189753584972
  endloop
endfacet
facet normal -0.7933533402912359 0.6087614290087199 -1.5176171590508048e-15
  outer loop
    vertex 20.345136760588385 87.26654733503118 -0.02395718975367521
    vertex 12.399205630693835 76.91120827570383 14.976042810246225
    vertex 20.345136760588364 87.26654733503118 14.976042810246394
  endloop
endfacet
facet normal -0.3826833036285041 -0.9238795858357081 -1.2125252956698667e-07
  outer loop
    vertex 42.75952495683225 3.6149203219411943 -0.023957189753584972
    vertex 30.700475819915678 8.609938086481886 14.976042810246394
    vertex 30.700475819912178 8.609938086473381 -0.02395718975367521
  endloop
endfacet
facet normal -0.3826833036285041 -0.9238795858357081 -1.2125252956698667e-07
  outer loop
    vertex 30.700475819915678 8.609938086481886 14.976042810246394
    vertex 42.75952495683225 3.6149203219411943 -0.023957189753584972
    vertex 42.75952356478964 3.614916961250403 14.976042810246394
  endloop
endfacet
facet normal -0.30231671599169446 -0.9532075341875961 4.157280486188051e-16
  outer loop
    vertex 105.7004758199157 11.911208275703808 12.97604281024632
    vertex 91.05581487924314 16.5558692163764 -0.023957189753584972
    vertex 105.7004758199157 11.911208275703808 -0.02395718975367521
  endloop
endfacet
facet normal -0.30231671599169446 -0.9532075341875961 4.157280486188051e-16
  outer loop
    vertex 91.05581487924314 16.5558692163764 -0.023957189753584972
    vertex 105.7004758199157 11.911208275703808 12.97604281024632
    vertex 91.05581487924314 16.55586921637641 12.976042810246398
  endloop
endfacet
facet normal -7.049916206369788e-16 -1.0 3.25380747986296e-15
  outer loop
    vertex 165.7004758199155 11.911208275703723 -0.023957189753630093
    vertex 105.7004758199157 11.911208275703808 12.97604281024632
    vertex 105.7004758199157 11.911208275703808 -0.02395718975367521
  endloop
endfacet
facet normal -7.049916206369788e-16 -1.0 3.25380747986296e-15
  outer loop
    vertex 105.7004758199157 11.911208275703808 12.97604281024632
    vertex 165.7004758199155 11.911208275703723 -0.023957189753630093
    vertex 165.7004758199155 11.911208275703808 12.976042810246359
  endloop
endfacet
facet normal 0.13052619221992826 -0.9914448613738267 -1.06794848175527e-13
  outer loop
    vertex 68.64142807504174 3.61491696125038 14.976042810246394
    vertex 55.70047581991618 1.9112082757071087 -0.023957189753584972
    vertex 68.6414280750418 3.61491696125038 -0.023957189753584972
  endloop
endfacet
facet normal 0.13052619221992826 -0.9914448613738267 -1.06794848175527e-13
  outer loop
    vertex 55.70047581991618 1.9112082757071087 -0.023957189753584972
    vertex 68.64142807504174 3.61491696125038 14.976042810246394
    vertex 55.70047581991575 1.9112082757038151 14.976042810246225
  endloop
endfacet
facet normal 0.6087614290087247 0.7933533402912322 -0.0
  outer loop
    vertex 80.70047581991598 95.2124784649258 -0.023957189753584972
    vertex 91.05581487924333 87.26654733503118 12.97604281024632
    vertex 91.05581487924333 87.26654733503118 -0.02395718975367521
  endloop
endfacet
facet normal 0.6087614290087247 0.7933533402912322 -0.0
  outer loop
    vertex 91.05581487924333 87.26654733503118 12.97604281024632
    vertex 80.70047581991598 95.2124784649258 -0.023957189753584972
    vertex 80.70047581991598 95.2124784649258 14.976042810246394
  endloop
endfacet
facet normal 0.6087614290087247 0.7933533402912322 -0.0
  outer loop
    vertex 91.05581487924333 87.26654733503118 12.97604281024632
    vertex 80.70047581991598 95.2124784649258 14.976042810246394
    vertex 91.05581487924333 87.26654733503118 14.976042810246394
  endloop
endfacet
facet normal -8.249490226037319e-18 -1.8770269598594578e-16 1.0
  outer loop
    vertex 105.7004758199157 11.911208275703808 12.97604281024632
    vertex 99.00174600913765 26.911208275703782 12.976042810246398
    vertex 91.05581487924314 16.55586921637641 12.976042810246398
  endloop
endfacet
facet normal -8.249490226037319e-18 -1.8770269598594578e-16 1.0
  outer loop
    vertex 99.00174600913765 26.911208275703782 12.976042810246398
    vertex 105.7004758199157 11.911208275703808 12.97604281024632
    vertex 103.99676713436911 38.97025602057774 12.976042810246398
  endloop
endfacet
facet normal -8.249490226037319e-18 -1.8770269598594578e-16 1.0
  outer loop
    vertex 103.99676713436911 38.97025602057774 12.976042810246398
    vertex 105.7004758199157 11.911208275703808 12.97604281024632
    vertex 105.70047581991584 51.91120827570383 12.976042810246398
  endloop
endfacet
facet normal -8.249490226037319e-18 -1.8770269598594578e-16 1.0
  outer loop
    vertex 105.70047581991584 51.91120827570383 12.976042810246398
    vertex 105.7004758199157 11.911208275703808 12.97604281024632
    vertex 165.7004758199155 11.911208275703808 12.976042810246359
  endloop
endfacet
facet normal -8.249490226037319e-18 -1.8770269598594578e-16 1.0
  outer loop
    vertex 105.70047581991584 51.91120827570383 12.976042810246398
    vertex 165.7004758199155 11.911208275703808 12.976042810246359
    vertex 133.8619981888309 50.07273064461876 12.97604281024642
  endloop
endfacet
facet normal -8.249490226037319e-18 -1.8770269598594578e-16 1.0
  outer loop
    vertex 105.70047581991584 51.91120827570383 12.976042810246398
    vertex 133.8619981888309 50.07273064461876 12.97604281024642
    vertex 133.44880977007637 50.61120827570383 12.97604281024642
  endloop
endfacet
facet normal -8.249490226037319e-18 -1.8770269598594578e-16 1.0
  outer loop
    vertex 105.70047581991584 51.91120827570383 12.976042810246398
    vertex 133.44880977007637 50.61120827570383 12.97604281024642
    vertex 133.1890686715643 51.23827875843728 12.97604281024642
  endloop
endfacet
facet normal -8.249490226037319e-18 -1.8770269598594578e-16 1.0
  outer loop
    vertex 105.70047581991584 51.91120827570383 12.976042810246398
    vertex 133.1890686715643 51.23827875843728 12.97604281024642
    vertex 133.1004758199159 51.91120827570383 12.97604281024642
  endloop
endfacet
facet normal -8.249490226037319e-18 -1.8770269598594578e-16 1.0
  outer loop
    vertex 133.8619981888309 50.07273064461876 12.97604281024642
    vertex 165.7004758199155 11.911208275703808 12.976042810246359
    vertex 134.4004758199159 49.659542225864264 12.97604281024642
  endloop
endfacet
facet normal -8.249490226037319e-18 -1.8770269598594578e-16 1.0
  outer loop
    vertex 134.4004758199159 49.659542225864264 12.97604281024642
    vertex 165.7004758199155 11.911208275703808 12.976042810246359
    vertex 135.02754630264937 49.39980112735222 12.97604281024642
  endloop
endfacet
facet normal -8.249490226037319e-18 -1.8770269598594578e-16 1.0
  outer loop
    vertex 135.02754630264937 49.39980112735222 12.97604281024642
    vertex 165.7004758199155 11.911208275703808 12.976042810246359
    vertex 135.7004758199159 49.311208275703784 12.97604281024642
  endloop
endfacet
facet normal -8.249490226037319e-18 -1.8770269598594578e-16 1.0
  outer loop
    vertex 135.7004758199159 49.311208275703784 12.97604281024642
    vertex 165.7004758199155 11.911208275703808 12.976042810246359
    vertex 136.37340533718245 49.39980112735222 12.97604281024642
  endloop
endfacet
facet normal -8.249490226037319e-18 -1.8770269598594578e-16 1.0
  outer loop
    vertex 136.37340533718245 49.39980112735222 12.97604281024642
    vertex 165.7004758199155 11.911208275703808 12.976042810246359
    vertex 137.0004758199159 49.659542225864264 12.97604281024642
  endloop
endfacet
facet normal -8.249490226037319e-18 -1.8770269598594578e-16 1.0
  outer loop
    vertex 137.0004758199159 49.659542225864264 12.97604281024642
    vertex 165.7004758199155 11.911208275703808 12.976042810246359
    vertex 137.53895345100094 50.07273064461876 12.97604281024642
  endloop
endfacet
facet normal -8.249490226037319e-18 -1.8770269598594578e-16 1.0
  outer loop
    vertex 137.53895345100094 50.07273064461876 12.97604281024642
    vertex 165.7004758199155 11.911208275703808 12.976042810246359
    vertex 137.95214186975542 50.61120827570383 12.97604281024642
  endloop
endfacet
facet normal -8.249490226037319e-18 -1.8770269598594578e-16 1.0
  outer loop
    vertex 137.95214186975542 50.61120827570383 12.97604281024642
    vertex 165.7004758199155 11.911208275703808 12.976042810246359
    vertex 138.21188296826747 51.23827875843728 12.97604281024642
  endloop
endfacet
facet normal -8.249490226037319e-18 -1.8770269598594578e-16 1.0
  outer loop
    vertex 138.21188296826747 51.23827875843728 12.97604281024642
    vertex 165.7004758199155 11.911208275703808 12.976042810246359
    vertex 138.3004758199159 51.91120827570383 12.97604281024642
  endloop
endfacet
facet normal -8.249490226037319e-18 -1.8770269598594578e-16 1.0
  outer loop
    vertex 99.00174600913783 76.91120827570379 12.976042810246398
    vertex 105.7004758199158 98.11120827570386 12.976042810246398
    vertex 91.05581487924333 87.26654733503118 12.97604281024632
  endloop
endfacet
facet normal -8.249490226037319e-18 -1.8770269598594578e-16 1.0
  outer loop
    vertex 105.7004758199158 98.11120827570386 12.976042810246398
    vertex 99.00174600913783 76.91120827570379 12.976042810246398
    vertex 103.99676713436924 64.85216053082988 12.976042810246398
  endloop
endfacet
facet normal -8.249490226037319e-18 -1.8770269598594578e-16 1.0
  outer loop
    vertex 105.7004758199158 98.11120827570386 12.976042810246398
    vertex 103.99676713436924 64.85216053082988 12.976042810246398
    vertex 105.70047581991584 51.91120827570383 12.976042810246398
  endloop
endfacet
facet normal -8.249490226037319e-18 -1.8770269598594578e-16 1.0
  outer loop
    vertex 105.7004758199158 98.11120827570386 12.976042810246398
    vertex 105.70047581991584 51.91120827570383 12.976042810246398
    vertex 165.7004758199155 98.11120827570386 12.976042810246398
  endloop
endfacet
facet normal -8.249490226037319e-18 -1.8770269598594578e-16 1.0
  outer loop
    vertex 165.7004758199155 98.11120827570386 12.976042810246398
    vertex 105.70047581991584 51.91120827570383 12.976042810246398
    vertex 133.44880977007637 53.21120827570385 12.97604281024642
  endloop
endfacet
facet normal -8.249490226037319e-18 -1.8770269598594578e-16 1.0
  outer loop
    vertex 133.44880977007637 53.21120827570385 12.97604281024642
    vertex 105.70047581991584 51.91120827570383 12.976042810246398
    vertex 133.1890686715643 52.58413779297042 12.97604281024642
  endloop
endfacet
facet normal -8.249490226037319e-18 -1.8770269598594578e-16 1.0
  outer loop
    vertex 133.1890686715643 52.58413779297042 12.97604281024642
    vertex 105.70047581991584 51.91120827570383 12.976042810246398
    vertex 133.1004758199159 51.91120827570383 12.97604281024642
  endloop
endfacet
facet normal -8.249490226037319e-18 -1.8770269598594578e-16 1.0
  outer loop
    vertex 165.7004758199155 98.11120827570386 12.976042810246398
    vertex 133.44880977007637 53.21120827570385 12.97604281024642
    vertex 133.8619981888309 53.74968590678884 12.97604281024642
  endloop
endfacet
facet normal -8.249490226037319e-18 -1.8770269598594578e-16 1.0
  outer loop
    vertex 165.7004758199155 98.11120827570386 12.976042810246398
    vertex 133.8619981888309 53.74968590678884 12.97604281024642
    vertex 134.4004758199159 54.16287432554341 12.97604281024642
  endloop
endfacet
facet normal -8.249490226037319e-18 -1.8770269598594578e-16 1.0
  outer loop
    vertex 165.7004758199155 98.11120827570386 12.976042810246398
    vertex 134.4004758199159 54.16287432554341 12.97604281024642
    vertex 135.02754630264937 54.42261542405546 12.97604281024642
  endloop
endfacet
facet normal -8.249490226037319e-18 -1.8770269598594578e-16 1.0
  outer loop
    vertex 165.7004758199155 98.11120827570386 12.976042810246398
    vertex 135.02754630264937 54.42261542405546 12.97604281024642
    vertex 135.7004758199159 54.511208275703844 12.97604281024642
  endloop
endfacet
facet normal -8.249490226037319e-18 -1.8770269598594578e-16 1.0
  outer loop
    vertex 165.7004758199155 98.11120827570386 12.976042810246398
    vertex 135.7004758199159 54.511208275703844 12.97604281024642
    vertex 136.37340533718245 54.42261542405546 12.97604281024642
  endloop
endfacet
facet normal -8.249490226037319e-18 -1.8770269598594578e-16 1.0
  outer loop
    vertex 165.7004758199155 98.11120827570386 12.976042810246398
    vertex 136.37340533718245 54.42261542405546 12.97604281024642
    vertex 137.0004758199159 54.16287432554341 12.97604281024642
  endloop
endfacet
facet normal -8.249490226037319e-18 -1.8770269598594578e-16 1.0
  outer loop
    vertex 165.7004758199155 98.11120827570386 12.976042810246398
    vertex 137.0004758199159 54.16287432554341 12.97604281024642
    vertex 137.53895345100094 53.74968590678884 12.97604281024642
  endloop
endfacet
facet normal -8.249490226037319e-18 -1.8770269598594578e-16 1.0
  outer loop
    vertex 165.7004758199155 98.11120827570386 12.976042810246398
    vertex 137.53895345100094 53.74968590678884 12.97604281024642
    vertex 137.95214186975542 53.21120827570385 12.97604281024642
  endloop
endfacet
facet normal -8.249490226037319e-18 -1.8770269598594578e-16 1.0
  outer loop
    vertex 165.7004758199155 98.11120827570386 12.976042810246398
    vertex 137.95214186975542 53.21120827570385 12.97604281024642
    vertex 138.21188296826747 52.58413779297042 12.97604281024642
  endloop
endfacet
facet normal -8.249490226037319e-18 -1.8770269598594578e-16 1.0
  outer loop
    vertex 165.7004758199155 98.11120827570386 12.976042810246398
    vertex 138.21188296826747 52.58413779297042 12.97604281024642
    vertex 138.3004758199159 51.91120827570383 12.97604281024642
  endloop
endfacet
facet normal -8.249490226037319e-18 -1.8770269598594578e-16 1.0
  outer loop
    vertex 165.7004758199155 98.11120827570386 12.976042810246398
    vertex 138.3004758199159 51.91120827570383 12.97604281024642
    vertex 165.7004758199155 11.911208275703808 12.976042810246359
  endloop
endfacet
facet normal 0.7933533402912366 -0.6087614290087188 1.7032752098469876e-15
  outer loop
    vertex 99.00174600913765 26.911208275703782 12.976042810246398
    vertex 91.05581487924314 16.555869216376422 14.976042810246394
    vertex 91.05581487924314 16.55586921637641 12.976042810246398
  endloop
endfacet
facet normal 0.7933533402912366 -0.6087614290087188 1.7032752098469876e-15
  outer loop
    vertex 91.05581487924314 16.555869216376422 14.976042810246394
    vertex 99.00174600913765 26.911208275703782 12.976042810246398
    vertex 99.00174600913765 26.911208275703782 14.976042810246394
  endloop
endfacet
facet normal -0.595112879135311 0.8036421225192721 -1.011789661400566e-15
  outer loop
    vertex 91.05581487924333 87.26654733503118 12.97604281024632
    vertex 105.70047581991584 98.11120827570386 -0.023957189753584972
    vertex 91.05581487924333 87.26654733503118 -0.02395718975367521
  endloop
endfacet
facet normal -0.595112879135311 0.8036421225192721 -1.011789661400566e-15
  outer loop
    vertex 105.70047581991584 98.11120827570386 -0.023957189753584972
    vertex 91.05581487924333 87.26654733503118 12.97604281024632
    vertex 105.7004758199158 98.11120827570386 12.976042810246398
  endloop
endfacet
facet normal 0.7933533402912376 0.6087614290087174 7.584393556637987e-17
  outer loop
    vertex 91.05581487924333 87.26654733503118 12.97604281024632
    vertex 99.00174600913783 76.91120827570379 14.976042810246394
    vertex 99.00174600913783 76.91120827570379 12.976042810246398
  endloop
endfacet
facet normal 0.7933533402912376 0.6087614290087174 7.584393556637987e-17
  outer loop
    vertex 99.00174600913783 76.91120827570379 14.976042810246394
    vertex 91.05581487924333 87.26654733503118 12.97604281024632
    vertex 91.05581487924333 87.26654733503118 14.976042810246394
  endloop
endfacet
facet normal -1.8799776550319367e-16 1.0 8.676819946301229e-16
  outer loop
    vertex 105.70047581991584 98.11120827570386 -0.023957189753584972
    vertex 165.7004758199155 98.11120827570386 12.976042810246398
    vertex 165.7004758199155 98.11120827570387 -0.023957189753630093
  endloop
endfacet
facet normal -1.8799776550319367e-16 1.0 8.676819946301229e-16
  outer loop
    vertex 165.7004758199155 98.11120827570386 12.976042810246398
    vertex 105.70047581991584 98.11120827570386 -0.023957189753584972
    vertex 105.7004758199158 98.11120827570386 12.976042810246398
  endloop
endfacet
facet normal 0.6087614290087195 -0.793353340291236 5.513534903164628e-16
  outer loop
    vertex 91.05581487924314 16.5558692163764 -0.023957189753584972
    vertex 85.0027748931141 11.911208275703808 14.976042810246394
    vertex 85.0027748931141 11.911208275703808 -0.02395718975367521
  endloop
endfacet
facet normal 0.6087614290087195 -0.793353340291236 5.513534903164628e-16
  outer loop
    vertex 85.0027748931141 11.911208275703808 14.976042810246394
    vertex 91.05581487924314 16.5558692163764 -0.023957189753584972
    vertex 91.05581487924314 16.55586921637641 12.976042810246398
  endloop
endfacet
facet normal 0.6087614290087195 -0.793353340291236 5.513534903164628e-16
  outer loop
    vertex 85.0027748931141 11.911208275703808 14.976042810246394
    vertex 91.05581487924314 16.55586921637641 12.976042810246398
    vertex 91.05581487924314 16.555869216376422 14.976042810246394
  endloop
endfacet
facet normal -2.5515501616684232e-16 -1.2606604189410665e-16 1.0
  outer loop
    vertex 7.404184505462343 38.970256020577786 14.976042810246394
    vertex 7.404184505462343 64.85216053082992 14.976042810246394
    vertex 5.700475819915744 51.91120827570383 14.976042810246394
  endloop
endfacet
facet normal -2.5515501616684232e-16 -1.2606604189410665e-16 1.0
  outer loop
    vertex 7.404184505462343 64.85216053082992 14.976042810246394
    vertex 7.404184505462343 38.970256020577786 14.976042810246394
    vertex 12.39920563069379 26.911208275703814 14.976042810246394
  endloop
endfacet
facet normal -2.5515501616684232e-16 -1.2606604189410665e-16 1.0
  outer loop
    vertex 7.404184505462343 64.85216053082992 14.976042810246394
    vertex 12.39920563069379 26.911208275703814 14.976042810246394
    vertex 12.399205630693835 76.91120827570383 14.976042810246225
  endloop
endfacet
facet normal -2.5515501616684232e-16 -1.2606604189410665e-16 1.0
  outer loop
    vertex 12.399205630693835 76.91120827570383 14.976042810246225
    vertex 12.39920563069379 26.911208275703814 14.976042810246394
    vertex 20.345136760588318 16.555869216376447 14.976042810246394
  endloop
endfacet
facet normal -2.5515501616684232e-16 -1.2606604189410665e-16 1.0
  outer loop
    vertex 12.399205630693835 76.91120827570383 14.976042810246225
    vertex 20.345136760588318 16.555869216376447 14.976042810246394
    vertex 20.345136760588364 87.26654733503118 14.976042810246394
  endloop
endfacet
facet normal -2.5515501616684232e-16 -1.2606604189410665e-16 1.0
  outer loop
    vertex 20.345136760588364 87.26654733503118 14.976042810246394
    vertex 20.345136760588318 16.555869216376447 14.976042810246394
    vertex 30.700475819915678 8.609938086481886 14.976042810246394
  endloop
endfacet
facet normal -2.5515501616684232e-16 -1.2606604189410665e-16 1.0
  outer loop
    vertex 20.345136760588364 87.26654733503118 14.976042810246394
    vertex 30.700475819915678 8.609938086481886 14.976042810246394
    vertex 30.700475819915766 95.2124784649258 14.976042810246394
  endloop
endfacet
facet normal -2.5515501616684232e-16 -1.2606604189410665e-16 1.0
  outer loop
    vertex 30.700475819915766 95.2124784649258 14.976042810246394
    vertex 30.700475819915678 8.609938086481886 14.976042810246394
    vertex 42.75952356478964 3.614916961250403 14.976042810246394
  endloop
endfacet
facet normal -2.5515501616684232e-16 -1.2606604189410665e-16 1.0
  outer loop
    vertex 30.700475819915766 95.2124784649258 14.976042810246394
    vertex 42.75952356478964 3.614916961250403 14.976042810246394
    vertex 40.7004758199157 51.91120827570383 14.976042810246225
  endloop
endfacet
facet normal -2.5515501616684232e-16 -1.2606604189410665e-16 1.0
  outer loop
    vertex 40.7004758199157 51.91120827570383 14.976042810246225
    vertex 42.75952356478964 3.614916961250403 14.976042810246394
    vertex 45.09387410211749 41.30460655790557 14.97604281024636
  endloop
endfacet
facet normal -2.5515501616684232e-16 -1.2606604189410665e-16 1.0
  outer loop
    vertex 45.09387410211749 41.30460655790557 14.97604281024636
    vertex 42.75952356478964 3.614916961250403 14.976042810246394
    vertex 55.70047581991575 1.9112082757038151 14.976042810246225
  endloop
endfacet
facet normal -2.5515501616684232e-16 -1.2606604189410665e-16 1.0
  outer loop
    vertex 45.09387410211749 41.30460655790557 14.97604281024636
    vertex 55.70047581991575 1.9112082757038151 14.976042810246225
    vertex 55.70047581991575 36.91120827570379 14.97604281024636
  endloop
endfacet
facet normal -2.5515501616684232e-16 -1.2606604189410665e-16 1.0
  outer loop
    vertex 55.70047581991575 36.91120827570379 14.97604281024636
    vertex 55.70047581991575 1.9112082757038151 14.976042810246225
    vertex 68.64142807504174 3.61491696125038 14.976042810246394
  endloop
endfacet
facet normal -2.5515501616684232e-16 -1.2606604189410665e-16 1.0
  outer loop
    vertex 55.70047581991575 36.91120827570379 14.97604281024636
    vertex 68.64142807504174 3.61491696125038 14.976042810246394
    vertex 66.30707753771397 41.30460655790557 14.97604281024636
  endloop
endfacet
facet normal -2.5515501616684232e-16 -1.2606604189410665e-16 1.0
  outer loop
    vertex 66.30707753771397 41.30460655790557 14.97604281024636
    vertex 68.64142807504174 3.61491696125038 14.976042810246394
    vertex 70.70047581991588 51.91120827570383 14.97604281024636
  endloop
endfacet
facet normal -2.5515501616684232e-16 -1.2606604189410665e-16 1.0
  outer loop
    vertex 70.70047581991588 51.91120827570383 14.97604281024636
    vertex 68.64142807504174 3.61491696125038 14.976042810246394
    vertex 80.70047581991575 8.609938086481863 14.976042810246394
  endloop
endfacet
facet normal -2.5515501616684232e-16 -1.2606604189410665e-16 1.0
  outer loop
    vertex 40.7004758199157 51.91120827570383 14.976042810246225
    vertex 42.75952356478968 100.20749959015723 14.976042810246394
    vertex 30.700475819915766 95.2124784649258 14.976042810246394
  endloop
endfacet
facet normal -2.5515501616684232e-16 -1.2606604189410665e-16 1.0
  outer loop
    vertex 42.75952356478968 100.20749959015723 14.976042810246394
    vertex 40.7004758199157 51.91120827570383 14.976042810246225
    vertex 45.09387410211749 62.51780999350206 14.97604281024636
  endloop
endfacet
facet normal -2.5515501616684232e-16 -1.2606604189410665e-16 1.0
  outer loop
    vertex 42.75952356478968 100.20749959015723 14.976042810246394
    vertex 45.09387410211749 62.51780999350206 14.97604281024636
    vertex 55.70047581991575 101.91120827570383 14.976042810246394
  endloop
endfacet
facet normal -2.5515501616684232e-16 -1.2606604189410665e-16 1.0
  outer loop
    vertex 55.70047581991575 101.91120827570383 14.976042810246394
    vertex 45.09387410211749 62.51780999350206 14.97604281024636
    vertex 55.70047581991575 66.91120827570381 14.97604281024636
  endloop
endfacet
facet normal -2.5515501616684232e-16 -1.2606604189410665e-16 1.0
  outer loop
    vertex 55.70047581991575 101.91120827570383 14.976042810246394
    vertex 55.70047581991575 66.91120827570381 14.97604281024636
    vertex 66.30707753771397 62.51780999350206 14.976042810246373
  endloop
endfacet
facet normal -2.5515501616684232e-16 -1.2606604189410665e-16 1.0
  outer loop
    vertex 55.70047581991575 101.91120827570383 14.976042810246394
    vertex 66.30707753771397 62.51780999350206 14.976042810246373
    vertex 68.6414280750418 100.20749959015718 14.976042810246394
  endloop
endfacet
facet normal -2.5515501616684232e-16 -1.2606604189410665e-16 1.0
  outer loop
    vertex 68.6414280750418 100.20749959015718 14.976042810246394
    vertex 66.30707753771397 62.51780999350206 14.976042810246373
    vertex 70.70047581991588 51.91120827570383 14.97604281024636
  endloop
endfacet
facet normal -2.5515501616684232e-16 -1.2606604189410665e-16 1.0
  outer loop
    vertex 68.6414280750418 100.20749959015718 14.976042810246394
    vertex 70.70047581991588 51.91120827570383 14.97604281024636
    vertex 80.70047581991598 95.2124784649258 14.976042810246394
  endloop
endfacet
facet normal -2.5515501616684232e-16 -1.2606604189410665e-16 1.0
  outer loop
    vertex 80.70047581991598 95.2124784649258 14.976042810246394
    vertex 70.70047581991588 51.91120827570383 14.97604281024636
    vertex 80.70047581991575 8.609938086481863 14.976042810246394
  endloop
endfacet
facet normal -2.5515501616684232e-16 -1.2606604189410665e-16 1.0
  outer loop
    vertex 80.70047581991598 95.2124784649258 14.976042810246394
    vertex 80.70047581991575 8.609938086481863 14.976042810246394
    vertex 85.0027748931141 11.911208275703808 14.976042810246394
  endloop
endfacet
facet normal -2.5515501616684232e-16 -1.2606604189410665e-16 1.0
  outer loop
    vertex 80.70047581991598 95.2124784649258 14.976042810246394
    vertex 85.0027748931141 11.911208275703808 14.976042810246394
    vertex 91.05581487924333 87.26654733503118 14.976042810246394
  endloop
endfacet
facet normal -2.5515501616684232e-16 -1.2606604189410665e-16 1.0
  outer loop
    vertex 91.05581487924333 87.26654733503118 14.976042810246394
    vertex 85.0027748931141 11.911208275703808 14.976042810246394
    vertex 91.05581487924314 16.555869216376422 14.976042810246394
  endloop
endfacet
facet normal -2.5515501616684232e-16 -1.2606604189410665e-16 1.0
  outer loop
    vertex 91.05581487924333 87.26654733503118 14.976042810246394
    vertex 91.05581487924314 16.555869216376422 14.976042810246394
    vertex 99.00174600913765 26.911208275703782 14.976042810246394
  endloop
endfacet
facet normal -2.5515501616684232e-16 -1.2606604189410665e-16 1.0
  outer loop
    vertex 91.05581487924333 87.26654733503118 14.976042810246394
    vertex 99.00174600913765 26.911208275703782 14.976042810246394
    vertex 99.00174600913783 76.91120827570379 14.976042810246394
  endloop
endfacet
facet normal -2.5515501616684232e-16 -1.2606604189410665e-16 1.0
  outer loop
    vertex 99.00174600913783 76.91120827570379 14.976042810246394
    vertex 99.00174600913765 26.911208275703782 14.976042810246394
    vertex 103.99676713436911 38.97025602057774 14.976042810246394
  endloop
endfacet
facet normal -2.5515501616684232e-16 -1.2606604189410665e-16 1.0
  outer loop
    vertex 99.00174600913783 76.91120827570379 14.976042810246394
    vertex 103.99676713436911 38.97025602057774 14.976042810246394
    vertex 103.99676713436924 64.85216053082988 14.976042810246394
  endloop
endfacet
facet normal -2.5515501616684232e-16 -1.2606604189410665e-16 1.0
  outer loop
    vertex 103.99676713436924 64.85216053082988 14.976042810246394
    vertex 103.99676713436911 38.97025602057774 14.976042810246394
    vertex 105.70047581991584 51.91120827570383 14.976042810246394
  endloop
endfacet
endsolid controller_simple_top
