solid controller_simple_bottom
facet normal 0.0 -1.0 0.0
  outer loop
    vertex -62.931080506358434 12.260825958614246 -19.65022134551893
    vertex -122.93108050635858 12.260825958614246 -4.65022134551916
    vertex -122.9310805063586 12.260825958614246 -19.65022134551902
  endloop
endfacet
facet normal 0.0 -1.0 0.0
  outer loop
    vertex -122.93108050635858 12.260825958614246 -4.65022134551916
    vertex -62.931080506358434 12.260825958614246 -19.65022134551893
    vertex -62.931080506358654 12.260825958614246 -3.650221345519137
  endloop
endfacet
facet normal 0.0 -1.0 0.0
  outer loop
    vertex -122.93108050635858 12.260825958614246 -4.65022134551916
    vertex -62.931080506358654 12.260825958614246 -3.650221345519137
    vertex -122.93108050635858 12.260825958614246 -3.6502213455191597
  endloop
endfacet
facet normal 0.7933533402912258 -0.6087614290087328 -8.689504842552545e-15
  outer loop
    vertex 30.37018968286368 27.260825958614276 -19.650221345518943
    vertex 22.424258552969075 16.90548689928689 -3.650221345519058
    vertex 22.424258552969018 16.90548689928689 -19.650221345518986
  endloop
endfacet
facet normal 0.7933533402912258 -0.6087614290087328 -8.689504842552545e-15
  outer loop
    vertex 22.424258552969075 16.90548689928689 -3.650221345519058
    vertex 30.37018968286368 27.260825958614276 -19.650221345518943
    vertex 30.370189682863938 27.26082595861424 -3.6502213455190384
  endloop
endfacet
facet normal 0.1305261922200536 0.9914448613738103 2.1347195441017002e-16
  outer loop
    vertex -12.931080506358077 102.26082595861413 -19.650221345518894
    vertex 0.00987174876787423 100.55711727306753 -3.650221345519157
    vertex 0.009871748768015602 100.55711727306753 -19.650221345518975
  endloop
endfacet
facet normal 0.1305261922200536 0.9914448613738103 2.1347195441017002e-16
  outer loop
    vertex 0.00987174876787423 100.55711727306753 -3.650221345519157
    vertex -12.931080506358077 102.26082595861413 -19.650221345518894
    vertex -12.931080506357986 102.26082595861413 -3.6502213455189567
  endloop
endfacet
facet normal -0.6087614290087107 -0.7933533402912428 4.260545147639762e-15
  outer loop
    vertex -37.93108050635803 8.959555769392294 -3.6502213455190287
    vertex -42.23337957955658 12.260825958614246 -19.650221345518926
    vertex -37.931080506358136 8.959555769392283 -19.65022134551903
  endloop
endfacet
facet normal -0.6087614290087107 -0.7933533402912428 4.260545147639762e-15
  outer loop
    vertex -42.23337957955658 12.260825958614246 -19.650221345518926
    vertex -37.93108050635803 8.959555769392294 -3.6502213455190287
    vertex -42.23337957955649 12.260825958614246 -3.6502213455190256
  endloop
endfacet
facet normal -0.38268343236508967 -0.9238795325112868 3.8031471500747596e-15
  outer loop
    vertex -25.872032761484242 3.964534644160819 -19.650221345519025
    vertex -37.93108050635803 8.959555769392294 -3.6502213455190287
    vertex -37.931080506358136 8.959555769392283 -19.65022134551903
  endloop
endfacet
facet normal -0.38268343236508967 -0.9238795325112868 3.8031471500747596e-15
  outer loop
    vertex -37.93108050635803 8.959555769392294 -3.6502213455190287
    vertex -25.872032761484242 3.964534644160819 -19.650221345519025
    vertex -25.872032761484068 3.964534644160819 -3.650221345518941
  endloop
endfacet
facet normal 0.9238795325112839 0.3826834323650967 -7.887111937580844e-15
  outer loop
    vertex 30.370189682863593 77.26082595861423 -19.65022134551904
    vertex 35.365210808095306 65.20177821374025 -3.650221345519017
    vertex 35.36521080809513 65.20177821374025 -19.650221345519043
  endloop
endfacet
facet normal 0.9238795325112839 0.3826834323650967 -7.887111937580844e-15
  outer loop
    vertex 35.365210808095306 65.20177821374025 -3.650221345519017
    vertex 30.370189682863593 77.26082595861423 -19.65022134551904
    vertex 30.370189682863685 77.26082595861423 -3.650221345519037
  endloop
endfacet
facet normal 0.7933533402912298 0.6087614290087278 -3.766126995043238e-15
  outer loop
    vertex 22.424258552969018 87.61616501794147 -19.650221345518986
    vertex 30.370189682863685 77.26082595861423 -3.650221345519037
    vertex 30.370189682863593 77.26082595861423 -19.65022134551904
  endloop
endfacet
facet normal 0.7933533402912298 0.6087614290087278 -3.766126995043238e-15
  outer loop
    vertex 30.370189682863685 77.26082595861423 -3.650221345519037
    vertex 22.424258552969018 87.61616501794147 -19.650221345518986
    vertex 22.424258552969075 87.61616501794147 -3.650221345519058
  endloop
endfacet
facet normal -0.608761429008714 0.7933533402912405 4.914077313808042e-15
  outer loop
    vertex -48.28641956568572 87.61616501794147 -19.650221345519018
    vertex -37.93108050635803 95.56209614783604 -3.6502213455190287
    vertex -37.931080506358136 95.56209614783609 -19.65022134551903
  endloop
endfacet
facet normal -0.608761429008714 0.7933533402912405 4.914077313808042e-15
  outer loop
    vertex -37.93108050635803 95.56209614783604 -3.6502213455190287
    vertex -48.28641956568572 87.61616501794147 -19.650221345519018
    vertex -48.286419565685634 87.61616501794147 -3.650221345519019
  endloop
endfacet
facet normal 0.9914448613738118 -0.1305261922200416 -7.916501320548118e-15
  outer loop
    vertex 37.068919493641644 52.260825958614205 -19.650221345518947
    vertex 35.365210808095306 39.31987370348821 -3.650221345519017
    vertex 35.36521080809513 39.31987370348821 -19.650221345519043
  endloop
endfacet
facet normal 0.9914448613738118 -0.1305261922200416 -7.916501320548118e-15
  outer loop
    vertex 35.365210808095306 39.31987370348821 -3.650221345519017
    vertex 37.068919493641644 52.260825958614205 -19.650221345518947
    vertex 37.068919493641715 52.260825958614205 -3.6502213455192414
  endloop
endfacet
facet normal 0.13052628118238818 -0.9914448496616861 -1.1299053170939947e-07
  outer loop
    vertex 0.009870356725477317 3.9645380048516445 -19.650221345518915
    vertex -12.931080506357986 2.2608259586142427 -3.6502213455189567
    vertex -12.931080506358432 2.2608259586175365 -19.650221345518926
  endloop
endfacet
facet normal 0.13052628118238818 -0.9914448496616861 -1.1299053170939947e-07
  outer loop
    vertex -12.931080506357986 2.2608259586142427 -3.6502213455189567
    vertex 0.009870356725477317 3.9645380048516445 -19.650221345518915
    vertex 0.009871748768039727 3.9645346441608416 -3.6502213455190935
  endloop
endfacet
facet normal 0.9238795325112892 -0.3826834323650842 -1.3325165927789524e-14
  outer loop
    vertex 30.37018968286368 27.260825958614276 -19.650221345518943
    vertex 35.365210808095306 39.31987370348821 -3.650221345519017
    vertex 30.370189682863938 27.26082595861424 -3.6502213455190384
  endloop
endfacet
facet normal 0.9238795325112892 -0.3826834323650842 -1.3325165927789524e-14
  outer loop
    vertex 35.365210808095306 39.31987370348821 -3.650221345519017
    vertex 30.37018968286368 27.260825958614276 -19.650221345518943
    vertex 35.36521080809513 39.31987370348821 -19.650221345519043
  endloop
endfacet
facet normal 0.608761429008902 -0.793353340291096 2.832988921238897e-13
  outer loop
    vertex 22.424258552969018 16.90548689928689 -19.650221345518986
    vertex 12.068919493641713 8.959555769392317 -3.650221345519096
    vertex 12.068919493645156 8.959555769383812 -19.650221345519075
  endloop
endfacet
facet normal 0.608761429008902 -0.793353340291096 2.832988921238897e-13
  outer loop
    vertex 12.068919493641713 8.959555769392317 -3.650221345519096
    vertex 22.424258552969018 16.90548689928689 -19.650221345518986
    vertex 22.424258552969075 16.90548689928689 -3.650221345519058
  endloop
endfacet
facet normal -0.608761429008715 -0.7933533402912395 3.820297476707156e-15
  outer loop
    vertex -42.23337957955658 12.260825958614246 -19.650221345518926
    vertex -48.286419565685634 16.905486899286867 -3.650221345519019
    vertex -48.28641956568572 16.905486899286856 -19.650221345519018
  endloop
endfacet
facet normal -0.608761429008715 -0.7933533402912395 3.820297476707156e-15
  outer loop
    vertex -48.286419565685634 16.905486899286867 -3.650221345519019
    vertex -42.23337957955658 12.260825958614246 -19.650221345518926
    vertex -42.23337957955649 12.260825958614246 -3.6502213455190256
  endloop
endfacet
facet normal 0.30231671599168886 -0.9532075341875978 1.7118883693781542e-15
  outer loop
    vertex -48.286419565685634 16.905486899286867 -3.650221345519019
    vertex -62.931080506358434 12.260825958614246 -19.65022134551893
    vertex -48.28641956568572 16.905486899286856 -19.650221345519018
  endloop
endfacet
facet normal 0.30231671599168886 -0.9532075341875978 1.7118883693781542e-15
  outer loop
    vertex -62.931080506358434 12.260825958614246 -19.65022134551893
    vertex -48.286419565685634 16.905486899286867 -3.650221345519019
    vertex -62.931080506358654 12.260825958614246 -3.650221345519137
  endloop
endfacet
facet normal 0.38268334654070574 -0.9238795680608985 -1.1697598842899582e-07
  outer loop
    vertex 12.068919493641713 8.959555769392317 -3.650221345519096
    vertex 0.009870356725477317 3.9645380048516445 -19.650221345518915
    vertex 12.068919493645156 8.959555769383812 -19.650221345519075
  endloop
endfacet
facet normal 0.38268334654070574 -0.9238795680608985 -1.1697598842899582e-07
  outer loop
    vertex 0.009870356725477317 3.9645380048516445 -19.650221345518915
    vertex 12.068919493641713 8.959555769392317 -3.650221345519096
    vertex 0.009871748768039727 3.9645346441608416 -3.6502213455190935
  endloop
endfacet
facet normal 0.9914448613738118 0.13052619222004105 -7.916501320548114e-15
  outer loop
    vertex 35.36521080809513 65.20177821374025 -19.650221345519043
    vertex 37.068919493641715 52.260825958614205 -3.6502213455192414
    vertex 37.068919493641644 52.260825958614205 -19.650221345518947
  endloop
endfacet
facet normal 0.9914448613738118 0.13052619222004105 -7.916501320548114e-15
  outer loop
    vertex 37.068919493641715 52.260825958614205 -3.6502213455192414
    vertex 35.36521080809513 65.20177821374025 -19.650221345519043
    vertex 35.365210808095306 65.20177821374025 -3.650221345519017
  endloop
endfacet
facet normal -0.13052619222005188 0.9914448613738105 1.109036786226585e-15
  outer loop
    vertex -25.872032761484068 100.55711727306753 -3.650221345518941
    vertex -12.931080506358077 102.26082595861413 -19.650221345518894
    vertex -25.872032761484242 100.55711727306753 -19.650221345519025
  endloop
endfacet
facet normal -0.13052619222005188 0.9914448613738105 1.109036786226585e-15
  outer loop
    vertex -12.931080506358077 102.26082595861413 -19.650221345518894
    vertex -25.872032761484068 100.55711727306753 -3.650221345518941
    vertex -12.931080506357986 102.26082595861413 -3.6502213455189567
  endloop
endfacet
facet normal -0.3826834323650904 0.9238795325112865 4.8199677554956544e-15
  outer loop
    vertex -37.93108050635803 95.56209614783604 -3.6502213455190287
    vertex -25.872032761484242 100.55711727306753 -19.650221345519025
    vertex -37.931080506358136 95.56209614783609 -19.65022134551903
  endloop
endfacet
facet normal -0.3826834323650904 0.9238795325112865 4.8199677554956544e-15
  outer loop
    vertex -25.872032761484242 100.55711727306753 -19.650221345519025
    vertex -37.93108050635803 95.56209614783604 -3.6502213455190287
    vertex -25.872032761484068 100.55711727306753 -3.650221345518941
  endloop
endfacet
facet normal 1.2533184366879522e-16 1.0 7.254685556762332e-16
  outer loop
    vertex -122.93108050635858 98.46082595861415 -4.65022134551916
    vertex -62.931080506358434 98.46082595861415 -19.65022134551893
    vertex -122.9310805063586 98.46082595861417 -19.65022134551902
  endloop
endfacet
facet normal 1.2533184366879522e-16 1.0 7.254685556762332e-16
  outer loop
    vertex -62.931080506358434 98.46082595861415 -19.65022134551893
    vertex -122.93108050635858 98.46082595861415 -4.65022134551916
    vertex -62.931080506358654 98.46082595861415 -3.650221345519137
  endloop
endfacet
facet normal 1.2533184366879522e-16 1.0 7.254685556762332e-16
  outer loop
    vertex -62.931080506358654 98.46082595861415 -3.650221345519137
    vertex -122.93108050635858 98.46082595861415 -4.65022134551916
    vertex -122.93108050635858 98.46082595861415 -3.6502213455191597
  endloop
endfacet
facet normal 0.5951128791352998 0.8036421225192805 2.7224943000026973e-15
  outer loop
    vertex -62.931080506358434 98.46082595861415 -19.65022134551893
    vertex -48.286419565685634 87.61616501794147 -3.650221345519019
    vertex -48.28641956568572 87.61616501794147 -19.650221345519018
  endloop
endfacet
facet normal 0.5951128791352998 0.8036421225192805 2.7224943000026973e-15
  outer loop
    vertex -48.286419565685634 87.61616501794147 -3.650221345519019
    vertex -62.931080506358434 98.46082595861415 -19.65022134551893
    vertex -62.931080506358654 98.46082595861415 -3.650221345519137
  endloop
endfacet
facet normal -0.13052619221996867 -0.9914448613738215 -1.0240643504753704e-13
  outer loop
    vertex -12.931080506358432 2.2608259586175365 -19.650221345518926
    vertex -25.872032761484068 3.964534644160819 -3.650221345518941
    vertex -25.872032761484242 3.964534644160819 -19.650221345519025
  endloop
endfacet
facet normal -0.13052619221996867 -0.9914448613738215 -1.0240643504753704e-13
  outer loop
    vertex -25.872032761484068 3.964534644160819 -3.650221345518941
    vertex -12.931080506358432 2.2608259586175365 -19.650221345518926
    vertex -12.931080506357986 2.2608259586142427 -3.6502213455189567
  endloop
endfacet
facet normal 0.38268343236509417 0.9238795325112851 1.5596598154939364e-15
  outer loop
    vertex 0.009871748768015602 100.55711727306753 -19.650221345518975
    vertex 12.068919493641651 95.56209614783609 -3.6502213455191708
    vertex 12.068919493641747 95.56209614783604 -19.650221345519096
  endloop
endfacet
facet normal 0.38268343236509417 0.9238795325112851 1.5596598154939364e-15
  outer loop
    vertex 12.068919493641651 95.56209614783609 -3.6502213455191708
    vertex 0.009871748768015602 100.55711727306753 -19.650221345518975
    vertex 0.00987174876787423 100.55711727306753 -3.650221345519157
  endloop
endfacet
facet normal 0.6087614290087231 0.7933533402912333 -3.8312478311713957e-16
  outer loop
    vertex 12.068919493641651 95.56209614783609 -3.6502213455191708
    vertex 22.424258552969018 87.61616501794147 -19.650221345518986
    vertex 12.068919493641747 95.56209614783604 -19.650221345519096
  endloop
endfacet
facet normal 0.6087614290087231 0.7933533402912333 -3.8312478311713957e-16
  outer loop
    vertex 22.424258552969018 87.61616501794147 -19.650221345518986
    vertex 12.068919493641651 95.56209614783609 -3.6502213455191708
    vertex 22.424258552969075 87.61616501794147 -3.650221345519058
  endloop
endfacet
facet normal -1.0 0.0 0.0
  outer loop
    vertex -122.93108050635858 98.46082595861415 -3.6502213455191597
    vertex -122.93108050635858 12.260825958614246 -4.65022134551916
    vertex -122.93108050635858 12.260825958614246 -3.6502213455191597
  endloop
endfacet
facet normal -1.0 0.0 0.0
  outer loop
    vertex -122.93108050635858 12.260825958614246 -4.65022134551916
    vertex -122.93108050635858 98.46082595861415 -3.6502213455191597
    vertex -122.93108050635858 98.46082595861415 -4.65022134551916
  endloop
endfacet
facet normal -3.7470027081099033e-16 -0.0 1.0
  outer loop
    vertex -62.931080506358654 12.260825958614246 -3.650221345519137
    vertex -122.93108050635858 98.46082595861415 -3.6502213455191597
    vertex -122.93108050635858 12.260825958614246 -3.6502213455191597
  endloop
endfacet
facet normal -3.7470027081099033e-16 -0.0 1.0
  outer loop
    vertex -122.93108050635858 98.46082595861415 -3.6502213455191597
    vertex -62.931080506358654 12.260825958614246 -3.650221345519137
    vertex -62.931080506358654 98.46082595861415 -3.650221345519137
  endloop
endfacet
facet normal -3.7470027081099033e-16 -0.0 1.0
  outer loop
    vertex -62.931080506358654 98.46082595861415 -3.650221345519137
    vertex -62.931080506358654 12.260825958614246 -3.650221345519137
    vertex -48.286419565685634 16.905486899286867 -3.650221345519019
  endloop
endfacet
facet normal -3.7470027081099033e-16 -0.0 1.0
  outer loop
    vertex -62.931080506358654 98.46082595861415 -3.650221345519137
    vertex -48.286419565685634 16.905486899286867 -3.650221345519019
    vertex -48.286419565685634 87.61616501794147 -3.650221345519019
  endloop
endfacet
facet normal -3.7470027081099033e-16 -0.0 1.0
  outer loop
    vertex -48.286419565685634 87.61616501794147 -3.650221345519019
    vertex -48.286419565685634 16.905486899286867 -3.650221345519019
    vertex -42.23337957955649 12.260825958614246 -3.6502213455190256
  endloop
endfacet
facet normal -3.7470027081099033e-16 -0.0 1.0
  outer loop
    vertex -48.286419565685634 87.61616501794147 -3.650221345519019
    vertex -42.23337957955649 12.260825958614246 -3.6502213455190256
    vertex -37.93108050635803 95.56209614783604 -3.6502213455190287
  endloop
endfacet
facet normal -3.7470027081099033e-16 -0.0 1.0
  outer loop
    vertex -37.93108050635803 95.56209614783604 -3.6502213455190287
    vertex -42.23337957955649 12.260825958614246 -3.6502213455190256
    vertex -37.93108050635803 8.959555769392294 -3.6502213455190287
  endloop
endfacet
facet normal -3.7470027081099033e-16 -0.0 1.0
  outer loop
    vertex -37.93108050635803 95.56209614783604 -3.6502213455190287
    vertex -37.93108050635803 8.959555769392294 -3.6502213455190287
    vertex -25.872032761484068 3.964534644160819 -3.650221345518941
  endloop
endfacet
facet normal -3.7470027081099033e-16 -0.0 1.0
  outer loop
    vertex -37.93108050635803 95.56209614783604 -3.6502213455190287
    vertex -25.872032761484068 3.964534644160819 -3.650221345518941
    vertex -25.872032761484068 100.55711727306753 -3.650221345518941
  endloop
endfacet
facet normal -3.7470027081099033e-16 -0.0 1.0
  outer loop
    vertex -25.872032761484068 100.55711727306753 -3.650221345518941
    vertex -25.872032761484068 3.964534644160819 -3.650221345518941
    vertex -12.931080506357986 2.2608259586142427 -3.6502213455189567
  endloop
endfacet
facet normal -3.7470027081099033e-16 -0.0 1.0
  outer loop
    vertex -25.872032761484068 100.55711727306753 -3.650221345518941
    vertex -12.931080506357986 2.2608259586142427 -3.6502213455189567
    vertex -12.931080506357986 102.26082595861413 -3.6502213455189567
  endloop
endfacet
facet normal -3.7470027081099033e-16 -0.0 1.0
  outer loop
    vertex -12.931080506357986 102.26082595861413 -3.6502213455189567
    vertex -12.931080506357986 2.2608259586142427 -3.6502213455189567
    vertex 0.009871748768039727 3.9645346441608416 -3.6502213455190935
  endloop
endfacet
facet normal -3.7470027081099033e-16 -0.0 1.0
  outer loop
    vertex -12.931080506357986 102.26082595861413 -3.6502213455189567
    vertex 0.009871748768039727 3.9645346441608416 -3.6502213455190935
    vertex 0.00987174876787423 100.55711727306753 -3.650221345519157
  endloop
endfacet
facet normal -3.7470027081099033e-16 -0.0 1.0
  outer loop
    vertex 0.00987174876787423 100.55711727306753 -3.650221345519157
    vertex 0.009871748768039727 3.9645346441608416 -3.6502213455190935
    vertex 12.068919493641651 95.56209614783609 -3.6502213455191708
  endloop
endfacet
facet normal -3.7470027081099033e-16 -0.0 1.0
  outer loop
    vertex 12.068919493641651 95.56209614783609 -3.6502213455191708
    vertex 0.009871748768039727 3.9645346441608416 -3.6502213455190935
    vertex 12.068919493641713 8.959555769392317 -3.650221345519096
  endloop
endfacet
facet normal -3.7470027081099033e-16 -0.0 1.0
  outer loop
    vertex 12.068919493641651 95.56209614783609 -3.6502213455191708
    vertex 12.068919493641713 8.959555769392317 -3.650221345519096
    vertex 22.424258552969075 87.61616501794147 -3.650221345519058
  endloop
endfacet
facet normal -3.7470027081099033e-16 -0.0 1.0
  outer loop
    vertex 22.424258552969075 87.61616501794147 -3.650221345519058
    vertex 12.068919493641713 8.959555769392317 -3.650221345519096
    vertex 22.424258552969075 16.90548689928689 -3.650221345519058
  endloop
endfacet
facet normal -3.7470027081099033e-16 -0.0 1.0
  outer loop
    vertex 22.424258552969075 87.61616501794147 -3.650221345519058
    vertex 22.424258552969075 16.90548689928689 -3.650221345519058
    vertex 30.370189682863938 27.26082595861424 -3.6502213455190384
  endloop
endfacet
facet normal -3.7470027081099033e-16 -0.0 1.0
  outer loop
    vertex 22.424258552969075 87.61616501794147 -3.650221345519058
    vertex 30.370189682863938 27.26082595861424 -3.6502213455190384
    vertex 30.370189682863685 77.26082595861423 -3.650221345519037
  endloop
endfacet
facet normal -3.7470027081099033e-16 -0.0 1.0
  outer loop
    vertex 30.370189682863685 77.26082595861423 -3.650221345519037
    vertex 30.370189682863938 27.26082595861424 -3.6502213455190384
    vertex 35.365210808095306 65.20177821374025 -3.650221345519017
  endloop
endfacet
facet normal -3.7470027081099033e-16 -0.0 1.0
  outer loop
    vertex 35.365210808095306 65.20177821374025 -3.650221345519017
    vertex 30.370189682863938 27.26082595861424 -3.6502213455190384
    vertex 35.365210808095306 39.31987370348821 -3.650221345519017
  endloop
endfacet
facet normal -3.7470027081099033e-16 -0.0 1.0
  outer loop
    vertex 35.365210808095306 65.20177821374025 -3.650221345519017
    vertex 35.365210808095306 39.31987370348821 -3.650221345519017
    vertex 37.068919493641715 52.260825958614205 -3.6502213455192414
  endloop
endfacet
endsolid controller_simple_bottom
