solid controller_simple_top
facet normal 0.6087614290087195 -0.793353340291236 2.9038042337193286e-16
  outer loop
    vertex 327.8421841276133 16.73684111833444 14.999999999999899
    vertex 317.4868450682859 8.790909988439903 9.023892744153272e-14
    vertex 327.8421841276134 16.736841118334418 9.023892744153272e-14
  endloop
endfacet
facet normal 0.6087614290087195 -0.793353340291236 2.9038042337193286e-16
  outer loop
    vertex 317.4868450682859 8.790909988439903 9.023892744153272e-14
    vertex 327.8421841276133 16.73684111833444 14.999999999999899
    vertex 317.486845068286 8.790909988439891 15.00000000000007
  endloop
endfacet
facet normal -0.7933533402912281 -0.6087614290087301 0.0
  outer loop
    vertex 249.18557487906378 27.09218017766182 15.00000000000007
    vertex 257.1315060089585 16.73684111833444 13.000000000000073
    vertex 257.1315060089585 16.73684111833444 15.00000000000007
  endloop
endfacet
facet normal -0.7933533402912281 -0.6087614290087301 0.0
  outer loop
    vertex 257.1315060089585 16.73684111833444 13.000000000000073
    vertex 249.18557487906378 27.09218017766182 15.00000000000007
    vertex 249.18557487906378 27.09218017766182 13.000000000000073
  endloop
endfacet
facet normal -0.6087614290087181 -0.793353340291237 -1.5477754607678854e-15
  outer loop
    vertex 263.1845459950877 12.092180177661826 15.00000000000007
    vertex 257.13150600895864 16.73684111833444 9.023892744153272e-14
    vertex 263.1845459950877 12.092180177661803 9.023892744153272e-14
  endloop
endfacet
facet normal -0.6087614290087181 -0.793353340291237 -1.5477754607678854e-15
  outer loop
    vertex 257.13150600895864 16.73684111833444 9.023892744153272e-14
    vertex 263.1845459950877 12.092180177661826 15.00000000000007
    vertex 257.1315060089585 16.73684111833444 13.000000000000073
  endloop
endfacet
facet normal -0.6087614290087181 -0.793353340291237 -1.5477754607678854e-15
  outer loop
    vertex 257.1315060089585 16.73684111833444 13.000000000000073
    vertex 263.1845459950877 12.092180177661826 15.00000000000007
    vertex 257.1315060089585 16.73684111833444 15.00000000000007
  endloop
endfacet
facet normal 0.7933533402912385 0.6087614290087163 1.8199521940286755e-15
  outer loop
    vertex 335.78811525750797 77.0921801776618 0.0
    vertex 327.84218412761345 87.44751923698915 15.00000000000007
    vertex 335.78811525750785 77.09218017766175 15.00000000000007
  endloop
endfacet
facet normal 0.7933533402912385 0.6087614290087163 1.8199521940286755e-15
  outer loop
    vertex 327.84218412761345 87.44751923698915 15.00000000000007
    vertex 335.78811525750797 77.0921801776618 0.0
    vertex 327.8421841276134 87.4475192369892 9.023892744153272e-14
  endloop
endfacet
facet normal 0.9914448613738112 0.13052619222004572 -2.983589786436684e-15
  outer loop
    vertex 340.7831363827394 65.0331324327879 0.0
    vertex 342.4868450682859 52.092180177661845 15.00000000000007
    vertex 342.4868450682859 52.092180177661845 0.0
  endloop
endfacet
facet normal 0.9914448613738112 0.13052619222004572 -2.983589786436684e-15
  outer loop
    vertex 342.4868450682859 52.092180177661845 15.00000000000007
    vertex 340.7831363827394 65.0331324327879 0.0
    vertex 340.78313638273943 65.0331324327879 15.00000000000007
  endloop
endfacet
facet normal 0.13052624550110017 -0.9914448543592248 -4.676389053078715e-08
  outer loop
    vertex 305.4277973234121 3.795888863208397 15.00000000000007
    vertex 292.4868450682859 2.092180177661832 9.023892744153272e-14
    vertex 305.42779714029444 3.7958902541229347 9.023892744153272e-14
  endloop
endfacet
facet normal 0.13052624550110017 -0.9914448543592248 -4.676389053078715e-08
  outer loop
    vertex 292.4868450682859 2.092180177661832 9.023892744153272e-14
    vertex 305.4277973234121 3.795888863208397 15.00000000000007
    vertex 292.4868450682859 2.092180177661832 15.00000000000007
  endloop
endfacet
facet normal -0.7933533402912338 0.6087614290087224 0.0
  outer loop
    vertex 257.1315060089585 87.4475192369892 15.00000000000007
    vertex 249.18557487906398 77.09218017766185 13.000000000000073
    vertex 249.18557487906398 77.09218017766185 15.00000000000007
  endloop
endfacet
facet normal -0.7933533402912338 0.6087614290087224 0.0
  outer loop
    vertex 249.18557487906398 77.09218017766185 13.000000000000073
    vertex 257.1315060089585 87.4475192369892 15.00000000000007
    vertex 257.1315060089585 87.4475192369892 13.000000000000073
  endloop
endfacet
facet normal -0.9914448613738107 -0.13052619222004924 1.7039677100499636e-18
  outer loop
    vertex 242.48684506828573 52.092180177661845 15.00000000000007
    vertex 244.1905537538323 39.1512279225358 13.000000000000073
    vertex 244.1905537538323 39.1512279225358 14.999999999999899
  endloop
endfacet
facet normal -0.9914448613738107 -0.13052619222004924 1.7039677100499636e-18
  outer loop
    vertex 244.1905537538323 39.1512279225358 13.000000000000073
    vertex 242.48684506828573 52.092180177661845 15.00000000000007
    vertex 242.48684506828573 52.092180177661845 13.000000000000073
  endloop
endfacet
facet normal 0.9238795325112863 -0.3826834323650908 0.0
  outer loop
    vertex 340.7831363827394 39.15122792253576 0.0
    vertex 335.78811525750785 27.0921801776618 15.00000000000007
    vertex 335.78811525750797 27.0921801776618 0.0
  endloop
endfacet
facet normal 0.9238795325112863 -0.3826834323650908 0.0
  outer loop
    vertex 335.78811525750785 27.0921801776618 15.00000000000007
    vertex 340.7831363827394 39.15122792253576 0.0
    vertex 340.78313638273943 39.15122792253576 15.00000000000007
  endloop
endfacet
facet normal -0.38268343236509117 -0.9238795325112862 1.0392035993640767e-15
  outer loop
    vertex 279.5458928131599 3.795888863208397 9.023892744153272e-14
    vertex 267.486845068286 8.790909988439903 15.00000000000007
    vertex 267.486845068286 8.79090998843988 0.0
  endloop
endfacet
facet normal -0.38268343236509117 -0.9238795325112862 1.0392035993640767e-15
  outer loop
    vertex 267.486845068286 8.790909988439903 15.00000000000007
    vertex 279.5458928131599 3.795888863208397 9.023892744153272e-14
    vertex 279.5458928131599 3.7958888632084085 15.00000000000007
  endloop
endfacet
facet normal -0.9238795325112809 0.3826834323651041 -6.792458297012621e-17
  outer loop
    vertex 249.18557487906398 77.09218017766185 15.00000000000007
    vertex 244.1905537538323 65.03313243278794 13.000000000000073
    vertex 244.1905537538323 65.03313243278794 14.999999999999899
  endloop
endfacet
facet normal -0.9238795325112809 0.3826834323651041 -6.792458297012621e-17
  outer loop
    vertex 244.1905537538323 65.03313243278794 13.000000000000073
    vertex 249.18557487906398 77.09218017766185 15.00000000000007
    vertex 249.18557487906398 77.09218017766185 13.000000000000073
  endloop
endfacet
facet normal -0.3826834323650858 0.9238795325112884 1.3780168575845476e-15
  outer loop
    vertex 267.486845068286 95.39345036688381 9.023892744153272e-14
    vertex 279.5458928131599 100.3884714921152 15.00000000000007
    vertex 279.5458928131599 100.38847149211524 0.0
  endloop
endfacet
facet normal -0.3826834323650858 0.9238795325112884 1.3780168575845476e-15
  outer loop
    vertex 279.5458928131599 100.3884714921152 15.00000000000007
    vertex 267.486845068286 95.39345036688381 9.023892744153272e-14
    vertex 267.486845068286 95.39345036688381 15.00000000000007
  endloop
endfacet
facet normal 0.7933533402912344 -0.6087614290087217 5.224567773895113e-15
  outer loop
    vertex 335.78811525750797 27.0921801776618 0.0
    vertex 327.8421841276133 16.73684111833444 14.999999999999899
    vertex 327.8421841276134 16.736841118334418 9.023892744153272e-14
  endloop
endfacet
facet normal 0.7933533402912344 -0.6087614290087217 5.224567773895113e-15
  outer loop
    vertex 327.8421841276133 16.73684111833444 14.999999999999899
    vertex 335.78811525750797 27.0921801776618 0.0
    vertex 335.78811525750785 27.0921801776618 15.00000000000007
  endloop
endfacet
facet normal 0.1305261922200552 0.99144486137381 3.947448011135078e-16
  outer loop
    vertex 292.4868450682859 102.09218017766183 15.00000000000007
    vertex 305.4277973234121 100.3884714921152 0.0
    vertex 292.486845068286 102.09218017766183 0.0
  endloop
endfacet
facet normal 0.1305261922200552 0.99144486137381 3.947448011135078e-16
  outer loop
    vertex 305.4277973234121 100.3884714921152 0.0
    vertex 292.4868450682859 102.09218017766183 15.00000000000007
    vertex 305.4277973234121 100.3884714921152 15.00000000000007
  endloop
endfacet
facet normal 0.608761429008722 0.7933533402912342 5.641133955207764e-16
  outer loop
    vertex 317.486845068286 95.39345036688377 14.999999999999899
    vertex 327.8421841276134 87.4475192369892 9.023892744153272e-14
    vertex 317.486845068286 95.39345036688381 9.023892744153272e-14
  endloop
endfacet
facet normal 0.608761429008722 0.7933533402912342 5.641133955207764e-16
  outer loop
    vertex 327.8421841276134 87.4475192369892 9.023892744153272e-14
    vertex 317.486845068286 95.39345036688377 14.999999999999899
    vertex 327.84218412761345 87.44751923698915 15.00000000000007
  endloop
endfacet
facet normal -0.6087614290087147 0.7933533402912398 8.779240377650862e-15
  outer loop
    vertex 257.1315060089585 87.4475192369892 13.000000000000073
    vertex 267.486845068286 95.39345036688381 9.023892744153272e-14
    vertex 257.13150600895864 87.44751923698955 0.0
  endloop
endfacet
facet normal -0.6087614290087147 0.7933533402912398 8.779240377650862e-15
  outer loop
    vertex 267.486845068286 95.39345036688381 9.023892744153272e-14
    vertex 257.1315060089585 87.4475192369892 13.000000000000073
    vertex 267.486845068286 95.39345036688381 15.00000000000007
  endloop
endfacet
facet normal -0.6087614290087147 0.7933533402912398 8.779240377650862e-15
  outer loop
    vertex 267.486845068286 95.39345036688381 15.00000000000007
    vertex 257.1315060089585 87.4475192369892 13.000000000000073
    vertex 257.1315060089585 87.4475192369892 15.00000000000007
  endloop
endfacet
facet normal 0.38268343236508584 0.9238795325112884 1.3769266676492096e-15
  outer loop
    vertex 305.4277973234121 100.3884714921152 15.00000000000007
    vertex 317.486845068286 95.39345036688381 9.023892744153272e-14
    vertex 305.4277973234121 100.3884714921152 0.0
  endloop
endfacet
facet normal 0.38268343236508584 0.9238795325112884 1.3769266676492096e-15
  outer loop
    vertex 317.486845068286 95.39345036688381 9.023892744153272e-14
    vertex 305.4277973234121 100.3884714921152 15.00000000000007
    vertex 317.486845068286 95.39345036688377 14.999999999999899
  endloop
endfacet
facet normal -0.9238795325112867 -0.3826834323650902 -6.792458296596995e-17
  outer loop
    vertex 244.1905537538323 39.1512279225358 14.999999999999899
    vertex 249.18557487906378 27.09218017766182 13.000000000000073
    vertex 249.18557487906378 27.09218017766182 15.00000000000007
  endloop
endfacet
facet normal -0.9238795325112867 -0.3826834323650902 -6.792458296596995e-17
  outer loop
    vertex 249.18557487906378 27.09218017766182 13.000000000000073
    vertex 244.1905537538323 39.1512279225358 14.999999999999899
    vertex 244.1905537538323 39.1512279225358 13.000000000000073
  endloop
endfacet
facet normal -0.13052619222005105 -0.9914448613738105 3.6986650245083274e-16
  outer loop
    vertex 292.4868450682859 2.092180177661832 15.00000000000007
    vertex 279.5458928131599 3.795888863208397 9.023892744153272e-14
    vertex 292.4868450682859 2.092180177661832 9.023892744153272e-14
  endloop
endfacet
facet normal -0.13052619222005105 -0.9914448613738105 3.6986650245083274e-16
  outer loop
    vertex 279.5458928131599 3.795888863208397 9.023892744153272e-14
    vertex 292.4868450682859 2.092180177661832 15.00000000000007
    vertex 279.5458928131599 3.7958888632084085 15.00000000000007
  endloop
endfacet
facet normal 0.3826833844068365 -0.9238795523762431 -4.5170453764092284e-08
  outer loop
    vertex 317.486845068286 8.790909988439891 15.00000000000007
    vertex 305.42779714029444 3.7958902541229347 9.023892744153272e-14
    vertex 317.4868450682859 8.790909988439903 9.023892744153272e-14
  endloop
endfacet
facet normal 0.3826833844068365 -0.9238795523762431 -4.5170453764092284e-08
  outer loop
    vertex 305.42779714029444 3.7958902541229347 9.023892744153272e-14
    vertex 317.486845068286 8.790909988439891 15.00000000000007
    vertex 305.4277973234121 3.795888863208397 15.00000000000007
  endloop
endfacet
facet normal -1.762145753370666e-16 8.325662090429366e-17 1.0
  outer loop
    vertex 244.1905537538323 39.1512279225358 14.999999999999899
    vertex 244.1905537538323 65.03313243278794 14.999999999999899
    vertex 242.48684506828573 52.092180177661845 15.00000000000007
  endloop
endfacet
facet normal -1.762145753370666e-16 8.325662090429366e-17 1.0
  outer loop
    vertex 244.1905537538323 65.03313243278794 14.999999999999899
    vertex 244.1905537538323 39.1512279225358 14.999999999999899
    vertex 249.18557487906378 27.09218017766182 15.00000000000007
  endloop
endfacet
facet normal -1.762145753370666e-16 8.325662090429366e-17 1.0
  outer loop
    vertex 244.1905537538323 65.03313243278794 14.999999999999899
    vertex 249.18557487906378 27.09218017766182 15.00000000000007
    vertex 249.18557487906398 77.09218017766185 15.00000000000007
  endloop
endfacet
facet normal -1.762145753370666e-16 8.325662090429366e-17 1.0
  outer loop
    vertex 249.18557487906398 77.09218017766185 15.00000000000007
    vertex 249.18557487906378 27.09218017766182 15.00000000000007
    vertex 257.1315060089585 16.73684111833444 15.00000000000007
  endloop
endfacet
facet normal -1.762145753370666e-16 8.325662090429366e-17 1.0
  outer loop
    vertex 249.18557487906398 77.09218017766185 15.00000000000007
    vertex 257.1315060089585 16.73684111833444 15.00000000000007
    vertex 257.1315060089585 87.4475192369892 15.00000000000007
  endloop
endfacet
facet normal -1.762145753370666e-16 8.325662090429366e-17 1.0
  outer loop
    vertex 257.1315060089585 87.4475192369892 15.00000000000007
    vertex 257.1315060089585 16.73684111833444 15.00000000000007
    vertex 263.1845459950877 12.092180177661826 15.00000000000007
  endloop
endfacet
facet normal -1.762145753370666e-16 8.325662090429366e-17 1.0
  outer loop
    vertex 257.1315060089585 87.4475192369892 15.00000000000007
    vertex 263.1845459950877 12.092180177661826 15.00000000000007
    vertex 267.486845068286 95.39345036688381 15.00000000000007
  endloop
endfacet
facet normal -1.762145753370666e-16 8.325662090429366e-17 1.0
  outer loop
    vertex 267.486845068286 95.39345036688381 15.00000000000007
    vertex 263.1845459950877 12.092180177661826 15.00000000000007
    vertex 267.486845068286 8.790909988439903 15.00000000000007
  endloop
endfacet
facet normal -1.762145753370666e-16 8.325662090429366e-17 1.0
  outer loop
    vertex 267.486845068286 95.39345036688381 15.00000000000007
    vertex 267.486845068286 8.790909988439903 15.00000000000007
    vertex 279.5458928131599 3.7958888632084085 15.00000000000007
  endloop
endfacet
facet normal -1.762145753370666e-16 8.325662090429366e-17 1.0
  outer loop
    vertex 267.486845068286 95.39345036688381 15.00000000000007
    vertex 279.5458928131599 3.7958888632084085 15.00000000000007
    vertex 274.2368450682859 52.092180177661525 15.00000000000007
  endloop
endfacet
facet normal -1.762145753370666e-16 8.325662090429366e-17 1.0
  outer loop
    vertex 274.2368450682859 52.092180177661525 15.00000000000007
    vertex 279.5458928131599 3.7958888632084085 15.00000000000007
    vertex 274.3475861328464 51.25101828107834 15.00000000000007
  endloop
endfacet
facet normal -1.762145753370666e-16 8.325662090429366e-17 1.0
  outer loop
    vertex 274.3475861328464 51.25101828107834 15.00000000000007
    vertex 279.5458928131599 3.7958888632084085 15.00000000000007
    vertex 274.67226250598645 50.467180177661476 15.00000000000007
  endloop
endfacet
facet normal -1.762145753370666e-16 8.325662090429366e-17 1.0
  outer loop
    vertex 274.67226250598645 50.467180177661476 15.00000000000007
    vertex 279.5458928131599 3.7958888632084085 15.00000000000007
    vertex 275.18874802942963 49.794083138805185 15.00000000000007
  endloop
endfacet
facet normal -1.762145753370666e-16 8.325662090429366e-17 1.0
  outer loop
    vertex 275.18874802942963 49.794083138805185 15.00000000000007
    vertex 279.5458928131599 3.7958888632084085 15.00000000000007
    vertex 275.8618450682859 49.27759761536204 15.00000000000007
  endloop
endfacet
facet normal -1.762145753370666e-16 8.325662090429366e-17 1.0
  outer loop
    vertex 275.8618450682859 49.27759761536204 15.00000000000007
    vertex 279.5458928131599 3.7958888632084085 15.00000000000007
    vertex 276.64568317170273 48.952921242222 15.00000000000007
  endloop
endfacet
facet normal -1.762145753370666e-16 8.325662090429366e-17 1.0
  outer loop
    vertex 276.64568317170273 48.952921242222 15.00000000000007
    vertex 279.5458928131599 3.7958888632084085 15.00000000000007
    vertex 277.4868450682859 48.842180177661454 15.00000000000007
  endloop
endfacet
facet normal -1.762145753370666e-16 8.325662090429366e-17 1.0
  outer loop
    vertex 277.4868450682859 48.842180177661454 15.00000000000007
    vertex 279.5458928131599 3.7958888632084085 15.00000000000007
    vertex 277.9074260165775 48.89755070994175 15.00000000000007
  endloop
endfacet
facet normal -1.762145753370666e-16 8.325662090429366e-17 1.0
  outer loop
    vertex 277.9074260165775 48.89755070994175 15.00000000000007
    vertex 279.5458928131599 3.7958888632084085 15.00000000000007
    vertex 278.3280069648691 48.952921242222 15.00000000000007
  endloop
endfacet
facet normal -1.762145753370666e-16 8.325662090429366e-17 1.0
  outer loop
    vertex 278.3280069648691 48.952921242222 15.00000000000007
    vertex 279.5458928131599 3.7958888632084085 15.00000000000007
    vertex 279.1118450682859 49.27759761536204 15.00000000000007
  endloop
endfacet
facet normal -1.762145753370666e-16 8.325662090429366e-17 1.0
  outer loop
    vertex 279.1118450682859 49.27759761536204 15.00000000000007
    vertex 279.5458928131599 3.7958888632084085 15.00000000000007
    vertex 279.7849421071422 49.794083138805185 15.00000000000007
  endloop
endfacet
facet normal -1.762145753370666e-16 8.325662090429366e-17 1.0
  outer loop
    vertex 279.7849421071422 49.794083138805185 15.00000000000007
    vertex 279.5458928131599 3.7958888632084085 15.00000000000007
    vertex 292.4868450682859 2.092180177661832 15.00000000000007
  endloop
endfacet
facet normal -1.762145753370666e-16 8.325662090429366e-17 1.0
  outer loop
    vertex 279.7849421071422 49.794083138805185 15.00000000000007
    vertex 292.4868450682859 2.092180177661832 15.00000000000007
    vertex 280.30142763058535 50.467180177661476 15.00000000000007
  endloop
endfacet
facet normal -1.762145753370666e-16 8.325662090429366e-17 1.0
  outer loop
    vertex 280.30142763058535 50.467180177661476 15.00000000000007
    vertex 292.4868450682859 2.092180177661832 15.00000000000007
    vertex 280.6261040037254 51.25101828107834 15.00000000000007
  endloop
endfacet
facet normal -1.762145753370666e-16 8.325662090429366e-17 1.0
  outer loop
    vertex 280.6261040037254 51.25101828107834 15.00000000000007
    vertex 292.4868450682859 2.092180177661832 15.00000000000007
    vertex 280.7368450682859 52.092180177661525 15.00000000000007
  endloop
endfacet
facet normal -1.762145753370666e-16 8.325662090429366e-17 1.0
  outer loop
    vertex 280.7368450682859 52.092180177661525 15.00000000000007
    vertex 292.4868450682859 2.092180177661832 15.00000000000007
    vertex 289.23684506828596 37.09218017766158 15.00000000000007
  endloop
endfacet
facet normal -1.762145753370666e-16 8.325662090429366e-17 1.0
  outer loop
    vertex 289.23684506828596 37.09218017766158 15.00000000000007
    vertex 292.4868450682859 2.092180177661832 15.00000000000007
    vertex 289.34758613284646 36.251018281078395 15.00000000000007
  endloop
endfacet
facet normal -1.762145753370666e-16 8.325662090429366e-17 1.0
  outer loop
    vertex 289.34758613284646 36.251018281078395 15.00000000000007
    vertex 292.4868450682859 2.092180177661832 15.00000000000007
    vertex 289.67226250598645 35.46718017766159 15.00000000000007
  endloop
endfacet
facet normal -1.762145753370666e-16 8.325662090429366e-17 1.0
  outer loop
    vertex 289.67226250598645 35.46718017766159 15.00000000000007
    vertex 292.4868450682859 2.092180177661832 15.00000000000007
    vertex 290.18874802942963 34.79408313880528 15.00000000000007
  endloop
endfacet
facet normal -1.762145753370666e-16 8.325662090429366e-17 1.0
  outer loop
    vertex 290.18874802942963 34.79408313880528 15.00000000000007
    vertex 292.4868450682859 2.092180177661832 15.00000000000007
    vertex 290.8618450682859 34.27759761536213 15.00000000000007
  endloop
endfacet
facet normal -1.762145753370666e-16 8.325662090429366e-17 1.0
  outer loop
    vertex 290.8618450682859 34.27759761536213 15.00000000000007
    vertex 292.4868450682859 2.092180177661832 15.00000000000007
    vertex 291.64568317170273 33.95292124222209 15.00000000000007
  endloop
endfacet
facet normal -1.762145753370666e-16 8.325662090429366e-17 1.0
  outer loop
    vertex 291.64568317170273 33.95292124222209 15.00000000000007
    vertex 292.4868450682859 2.092180177661832 15.00000000000007
    vertex 292.4868450682859 33.8421801776616 15.00000000000007
  endloop
endfacet
facet normal -1.762145753370666e-16 8.325662090429366e-17 1.0
  outer loop
    vertex 292.4868450682859 33.8421801776616 15.00000000000007
    vertex 292.4868450682859 2.092180177661832 15.00000000000007
    vertex 305.4277973234121 3.795888863208397 15.00000000000007
  endloop
endfacet
facet normal -1.762145753370666e-16 8.325662090429366e-17 1.0
  outer loop
    vertex 292.4868450682859 33.8421801776616 15.00000000000007
    vertex 305.4277973234121 3.795888863208397 15.00000000000007
    vertex 293.32800696486913 33.95292124222209 15.00000000000007
  endloop
endfacet
facet normal -1.762145753370666e-16 8.325662090429366e-17 1.0
  outer loop
    vertex 293.32800696486913 33.95292124222209 15.00000000000007
    vertex 305.4277973234121 3.795888863208397 15.00000000000007
    vertex 294.1118450682859 34.27759761536213 15.00000000000007
  endloop
endfacet
facet normal -1.762145753370666e-16 8.325662090429366e-17 1.0
  outer loop
    vertex 294.1118450682859 34.27759761536213 15.00000000000007
    vertex 305.4277973234121 3.795888863208397 15.00000000000007
    vertex 294.78494210714223 34.79408313880528 15.00000000000007
  endloop
endfacet
facet normal -1.762145753370666e-16 8.325662090429366e-17 1.0
  outer loop
    vertex 294.78494210714223 34.79408313880528 15.00000000000007
    vertex 305.4277973234121 3.795888863208397 15.00000000000007
    vertex 295.30142763058535 35.46718017766159 15.00000000000007
  endloop
endfacet
facet normal -1.762145753370666e-16 8.325662090429366e-17 1.0
  outer loop
    vertex 295.30142763058535 35.46718017766159 15.00000000000007
    vertex 305.4277973234121 3.795888863208397 15.00000000000007
    vertex 295.6261040037254 36.251018281078395 15.00000000000007
  endloop
endfacet
facet normal -1.762145753370666e-16 8.325662090429366e-17 1.0
  outer loop
    vertex 295.6261040037254 36.251018281078395 15.00000000000007
    vertex 305.4277973234121 3.795888863208397 15.00000000000007
    vertex 295.7368450682859 37.09218017766158 15.00000000000007
  endloop
endfacet
facet normal -1.762145753370666e-16 8.325662090429366e-17 1.0
  outer loop
    vertex 295.7368450682859 37.09218017766158 15.00000000000007
    vertex 305.4277973234121 3.795888863208397 15.00000000000007
    vertex 295.7368450682859 67.09218017766156 15.000000000000023
  endloop
endfacet
facet normal -1.762145753370666e-16 8.325662090429366e-17 1.0
  outer loop
    vertex 295.7368450682859 67.09218017766156 15.000000000000023
    vertex 305.4277973234121 3.795888863208397 15.00000000000007
    vertex 304.23684506828585 52.092180177661525 15.00000000000007
  endloop
endfacet
facet normal -1.762145753370666e-16 8.325662090429366e-17 1.0
  outer loop
    vertex 304.23684506828585 52.092180177661525 15.00000000000007
    vertex 305.4277973234121 3.795888863208397 15.00000000000007
    vertex 304.34758613284646 51.25101828107834 15.00000000000007
  endloop
endfacet
facet normal -1.762145753370666e-16 8.325662090429366e-17 1.0
  outer loop
    vertex 304.34758613284646 51.25101828107834 15.00000000000007
    vertex 305.4277973234121 3.795888863208397 15.00000000000007
    vertex 304.6722625059865 50.467180177661476 15.00000000000007
  endloop
endfacet
facet normal -1.762145753370666e-16 8.325662090429366e-17 1.0
  outer loop
    vertex 304.6722625059865 50.467180177661476 15.00000000000007
    vertex 305.4277973234121 3.795888863208397 15.00000000000007
    vertex 305.18874802942963 49.79408313880528 15.00000000000007
  endloop
endfacet
facet normal -1.762145753370666e-16 8.325662090429366e-17 1.0
  outer loop
    vertex 305.18874802942963 49.79408313880528 15.00000000000007
    vertex 305.4277973234121 3.795888863208397 15.00000000000007
    vertex 305.86184506828596 49.277597615362126 15.00000000000007
  endloop
endfacet
facet normal -1.762145753370666e-16 8.325662090429366e-17 1.0
  outer loop
    vertex 305.86184506828596 49.277597615362126 15.00000000000007
    vertex 305.4277973234121 3.795888863208397 15.00000000000007
    vertex 317.486845068286 8.790909988439891 15.00000000000007
  endloop
endfacet
facet normal -1.762145753370666e-16 8.325662090429366e-17 1.0
  outer loop
    vertex 305.86184506828596 49.277597615362126 15.00000000000007
    vertex 317.486845068286 8.790909988439891 15.00000000000007
    vertex 306.64568317170273 48.95292124222208 15.00000000000007
  endloop
endfacet
facet normal -1.762145753370666e-16 8.325662090429366e-17 1.0
  outer loop
    vertex 306.64568317170273 48.95292124222208 15.00000000000007
    vertex 317.486845068286 8.790909988439891 15.00000000000007
    vertex 307.06626411999434 48.89755070994179 15.00000000000007
  endloop
endfacet
facet normal -1.762145753370666e-16 8.325662090429366e-17 1.0
  outer loop
    vertex 307.06626411999434 48.89755070994179 15.00000000000007
    vertex 317.486845068286 8.790909988439891 15.00000000000007
    vertex 307.48684506828596 48.84218017766155 15.00000000000007
  endloop
endfacet
facet normal -1.762145753370666e-16 8.325662090429366e-17 1.0
  outer loop
    vertex 307.48684506828596 48.84218017766155 15.00000000000007
    vertex 317.486845068286 8.790909988439891 15.00000000000007
    vertex 308.32800696486913 48.95292124222208 15.00000000000007
  endloop
endfacet
facet normal -1.762145753370666e-16 8.325662090429366e-17 1.0
  outer loop
    vertex 308.32800696486913 48.95292124222208 15.00000000000007
    vertex 317.486845068286 8.790909988439891 15.00000000000007
    vertex 309.1118450682859 49.277597615362126 15.00000000000007
  endloop
endfacet
facet normal -1.762145753370666e-16 8.325662090429366e-17 1.0
  outer loop
    vertex 309.1118450682859 49.277597615362126 15.00000000000007
    vertex 317.486845068286 8.790909988439891 15.00000000000007
    vertex 309.7849421071422 49.79408313880528 15.00000000000007
  endloop
endfacet
facet normal -1.762145753370666e-16 8.325662090429366e-17 1.0
  outer loop
    vertex 309.7849421071422 49.79408313880528 15.00000000000007
    vertex 317.486845068286 8.790909988439891 15.00000000000007
    vertex 310.3014276305853 50.46718017766152 15.00000000000007
  endloop
endfacet
facet normal -1.762145753370666e-16 8.325662090429366e-17 1.0
  outer loop
    vertex 310.3014276305853 50.46718017766152 15.00000000000007
    vertex 317.486845068286 8.790909988439891 15.00000000000007
    vertex 310.6261040037254 51.25101828107842 15.00000000000007
  endloop
endfacet
facet normal -1.762145753370666e-16 8.325662090429366e-17 1.0
  outer loop
    vertex 310.6261040037254 51.25101828107842 15.00000000000007
    vertex 317.486845068286 8.790909988439891 15.00000000000007
    vertex 310.7368450682859 52.09218017766162 15.00000000000007
  endloop
endfacet
facet normal -1.762145753370666e-16 8.325662090429366e-17 1.0
  outer loop
    vertex 274.2368450682859 52.092180177661525 15.00000000000007
    vertex 279.5458928131599 100.3884714921152 15.00000000000007
    vertex 267.486845068286 95.39345036688381 15.00000000000007
  endloop
endfacet
facet normal -1.762145753370666e-16 8.325662090429366e-17 1.0
  outer loop
    vertex 279.5458928131599 100.3884714921152 15.00000000000007
    vertex 274.2368450682859 52.092180177661525 15.00000000000007
    vertex 274.3475861328464 52.93334207424471 15.00000000000007
  endloop
endfacet
facet normal -1.762145753370666e-16 8.325662090429366e-17 1.0
  outer loop
    vertex 279.5458928131599 100.3884714921152 15.00000000000007
    vertex 274.3475861328464 52.93334207424471 15.00000000000007
    vertex 274.67226250598645 53.71718017766152 15.00000000000007
  endloop
endfacet
facet normal -1.762145753370666e-16 8.325662090429366e-17 1.0
  outer loop
    vertex 279.5458928131599 100.3884714921152 15.00000000000007
    vertex 274.67226250598645 53.71718017766152 15.00000000000007
    vertex 275.18874802942963 54.390277216517845 15.00000000000007
  endloop
endfacet
facet normal -1.762145753370666e-16 8.325662090429366e-17 1.0
  outer loop
    vertex 279.5458928131599 100.3884714921152 15.00000000000007
    vertex 275.18874802942963 54.390277216517845 15.00000000000007
    vertex 275.8618450682859 54.90676273996099 15.00000000000007
  endloop
endfacet
facet normal -1.762145753370666e-16 8.325662090429366e-17 1.0
  outer loop
    vertex 279.5458928131599 100.3884714921152 15.00000000000007
    vertex 275.8618450682859 54.90676273996099 15.00000000000007
    vertex 276.64568317170273 55.23143911310103 15.00000000000007
  endloop
endfacet
facet normal -1.762145753370666e-16 8.325662090429366e-17 1.0
  outer loop
    vertex 279.5458928131599 100.3884714921152 15.00000000000007
    vertex 276.64568317170273 55.23143911310103 15.00000000000007
    vertex 277.4868450682859 55.34218017766153 15.00000000000007
  endloop
endfacet
facet normal -1.762145753370666e-16 8.325662090429366e-17 1.0
  outer loop
    vertex 279.5458928131599 100.3884714921152 15.00000000000007
    vertex 277.4868450682859 55.34218017766153 15.00000000000007
    vertex 277.9074260165775 55.28680964538128 15.00000000000007
  endloop
endfacet
facet normal -1.762145753370666e-16 8.325662090429366e-17 1.0
  outer loop
    vertex 279.5458928131599 100.3884714921152 15.00000000000007
    vertex 277.9074260165775 55.28680964538128 15.00000000000007
    vertex 278.3280069648691 55.23143911310103 15.00000000000007
  endloop
endfacet
facet normal -1.762145753370666e-16 8.325662090429366e-17 1.0
  outer loop
    vertex 279.5458928131599 100.3884714921152 15.00000000000007
    vertex 278.3280069648691 55.23143911310103 15.00000000000007
    vertex 279.1118450682859 54.90676273996099 15.00000000000007
  endloop
endfacet
facet normal -1.762145753370666e-16 8.325662090429366e-17 1.0
  outer loop
    vertex 279.5458928131599 100.3884714921152 15.00000000000007
    vertex 279.1118450682859 54.90676273996099 15.00000000000007
    vertex 279.7849421071422 54.390277216517845 15.00000000000007
  endloop
endfacet
facet normal -1.762145753370666e-16 8.325662090429366e-17 1.0
  outer loop
    vertex 279.5458928131599 100.3884714921152 15.00000000000007
    vertex 279.7849421071422 54.390277216517845 15.00000000000007
    vertex 292.4868450682859 102.09218017766183 15.00000000000007
  endloop
endfacet
facet normal -1.762145753370666e-16 8.325662090429366e-17 1.0
  outer loop
    vertex 292.4868450682859 102.09218017766183 15.00000000000007
    vertex 279.7849421071422 54.390277216517845 15.00000000000007
    vertex 280.30142763058535 53.71718017766152 15.00000000000007
  endloop
endfacet
facet normal -1.762145753370666e-16 8.325662090429366e-17 1.0
  outer loop
    vertex 292.4868450682859 102.09218017766183 15.00000000000007
    vertex 280.30142763058535 53.71718017766152 15.00000000000007
    vertex 280.6261040037254 52.93334207424471 15.00000000000007
  endloop
endfacet
facet normal -1.762145753370666e-16 8.325662090429366e-17 1.0
  outer loop
    vertex 292.4868450682859 102.09218017766183 15.00000000000007
    vertex 280.6261040037254 52.93334207424471 15.00000000000007
    vertex 280.7368450682859 52.092180177661525 15.00000000000007
  endloop
endfacet
facet normal -1.762145753370666e-16 8.325662090429366e-17 1.0
  outer loop
    vertex 292.4868450682859 102.09218017766183 15.00000000000007
    vertex 280.7368450682859 52.092180177661525 15.00000000000007
    vertex 289.23684506828596 67.09218017766156 15.000000000000023
  endloop
endfacet
facet normal -1.762145753370666e-16 8.325662090429366e-17 1.0
  outer loop
    vertex 289.23684506828596 67.09218017766156 15.000000000000023
    vertex 280.7368450682859 52.092180177661525 15.00000000000007
    vertex 289.23684506828596 37.09218017766158 15.00000000000007
  endloop
endfacet
facet normal -1.762145753370666e-16 8.325662090429366e-17 1.0
  outer loop
    vertex 292.4868450682859 102.09218017766183 15.00000000000007
    vertex 289.23684506828596 67.09218017766156 15.000000000000023
    vertex 289.34758613284646 67.9333420742448 15.000000000000023
  endloop
endfacet
facet normal -1.762145753370666e-16 8.325662090429366e-17 1.0
  outer loop
    vertex 292.4868450682859 102.09218017766183 15.00000000000007
    vertex 289.34758613284646 67.9333420742448 15.000000000000023
    vertex 289.67226250598645 68.7171801776616 15.00000000000007
  endloop
endfacet
facet normal -1.762145753370666e-16 8.325662090429366e-17 1.0
  outer loop
    vertex 292.4868450682859 102.09218017766183 15.00000000000007
    vertex 289.67226250598645 68.7171801776616 15.00000000000007
    vertex 290.18874802942963 69.3902772165179 15.00000000000007
  endloop
endfacet
facet normal -1.762145753370666e-16 8.325662090429366e-17 1.0
  outer loop
    vertex 292.4868450682859 102.09218017766183 15.00000000000007
    vertex 290.18874802942963 69.3902772165179 15.00000000000007
    vertex 290.8618450682859 69.90676273996105 15.00000000000007
  endloop
endfacet
facet normal -1.762145753370666e-16 8.325662090429366e-17 1.0
  outer loop
    vertex 292.4868450682859 102.09218017766183 15.00000000000007
    vertex 290.8618450682859 69.90676273996105 15.00000000000007
    vertex 291.64568317170273 70.23143911310108 15.00000000000007
  endloop
endfacet
facet normal -1.762145753370666e-16 8.325662090429366e-17 1.0
  outer loop
    vertex 292.4868450682859 102.09218017766183 15.00000000000007
    vertex 291.64568317170273 70.23143911310108 15.00000000000007
    vertex 292.4868450682859 70.34218017766162 15.00000000000007
  endloop
endfacet
facet normal -1.762145753370666e-16 8.325662090429366e-17 1.0
  outer loop
    vertex 292.4868450682859 102.09218017766183 15.00000000000007
    vertex 292.4868450682859 70.34218017766162 15.00000000000007
    vertex 293.32800696486913 70.23143911310108 15.00000000000007
  endloop
endfacet
facet normal -1.762145753370666e-16 8.325662090429366e-17 1.0
  outer loop
    vertex 292.4868450682859 102.09218017766183 15.00000000000007
    vertex 293.32800696486913 70.23143911310108 15.00000000000007
    vertex 305.4277973234121 100.3884714921152 15.00000000000007
  endloop
endfacet
facet normal -1.762145753370666e-16 8.325662090429366e-17 1.0
  outer loop
    vertex 305.4277973234121 100.3884714921152 15.00000000000007
    vertex 293.32800696486913 70.23143911310108 15.00000000000007
    vertex 294.1118450682859 69.90676273996105 15.00000000000007
  endloop
endfacet
facet normal -1.762145753370666e-16 8.325662090429366e-17 1.0
  outer loop
    vertex 305.4277973234121 100.3884714921152 15.00000000000007
    vertex 294.1118450682859 69.90676273996105 15.00000000000007
    vertex 294.78494210714223 69.3902772165179 15.00000000000007
  endloop
endfacet
facet normal -1.762145753370666e-16 8.325662090429366e-17 1.0
  outer loop
    vertex 305.4277973234121 100.3884714921152 15.00000000000007
    vertex 294.78494210714223 69.3902772165179 15.00000000000007
    vertex 295.30142763058535 68.7171801776616 15.00000000000007
  endloop
endfacet
facet normal -1.762145753370666e-16 8.325662090429366e-17 1.0
  outer loop
    vertex 305.4277973234121 100.3884714921152 15.00000000000007
    vertex 295.30142763058535 68.7171801776616 15.00000000000007
    vertex 295.6261040037254 67.9333420742448 15.000000000000023
  endloop
endfacet
facet normal -1.762145753370666e-16 8.325662090429366e-17 1.0
  outer loop
    vertex 305.4277973234121 100.3884714921152 15.00000000000007
    vertex 295.6261040037254 67.9333420742448 15.000000000000023
    vertex 295.7368450682859 67.09218017766156 15.000000000000023
  endloop
endfacet
facet normal -1.762145753370666e-16 8.325662090429366e-17 1.0
  outer loop
    vertex 305.4277973234121 100.3884714921152 15.00000000000007
    vertex 295.7368450682859 67.09218017766156 15.000000000000023
    vertex 304.23684506828585 52.092180177661525 15.00000000000007
  endloop
endfacet
facet normal -1.762145753370666e-16 8.325662090429366e-17 1.0
  outer loop
    vertex 305.4277973234121 100.3884714921152 15.00000000000007
    vertex 304.23684506828585 52.092180177661525 15.00000000000007
    vertex 304.34758613284646 52.93334207424471 15.00000000000007
  endloop
endfacet
facet normal -1.762145753370666e-16 8.325662090429366e-17 1.0
  outer loop
    vertex 305.4277973234121 100.3884714921152 15.00000000000007
    vertex 304.34758613284646 52.93334207424471 15.00000000000007
    vertex 304.6722625059865 53.71718017766152 15.00000000000007
  endloop
endfacet
facet normal -1.762145753370666e-16 8.325662090429366e-17 1.0
  outer loop
    vertex 305.4277973234121 100.3884714921152 15.00000000000007
    vertex 304.6722625059865 53.71718017766152 15.00000000000007
    vertex 305.18874802942963 54.39027721651789 15.00000000000007
  endloop
endfacet
facet normal -1.762145753370666e-16 8.325662090429366e-17 1.0
  outer loop
    vertex 305.4277973234121 100.3884714921152 15.00000000000007
    vertex 305.18874802942963 54.39027721651789 15.00000000000007
    vertex 305.86184506828585 54.90676273996104 15.00000000000007
  endloop
endfacet
facet normal -1.762145753370666e-16 8.325662090429366e-17 1.0
  outer loop
    vertex 305.4277973234121 100.3884714921152 15.00000000000007
    vertex 305.86184506828585 54.90676273996104 15.00000000000007
    vertex 317.486845068286 95.39345036688377 14.999999999999899
  endloop
endfacet
facet normal -1.762145753370666e-16 8.325662090429366e-17 1.0
  outer loop
    vertex 317.486845068286 95.39345036688377 14.999999999999899
    vertex 305.86184506828585 54.90676273996104 15.00000000000007
    vertex 306.64568317170273 55.23143911310108 15.00000000000007
  endloop
endfacet
facet normal -1.762145753370666e-16 8.325662090429366e-17 1.0
  outer loop
    vertex 317.486845068286 95.39345036688377 14.999999999999899
    vertex 306.64568317170273 55.23143911310108 15.00000000000007
    vertex 307.06626411999434 55.286809645381375 15.00000000000007
  endloop
endfacet
facet normal -1.762145753370666e-16 8.325662090429366e-17 1.0
  outer loop
    vertex 317.486845068286 95.39345036688377 14.999999999999899
    vertex 307.06626411999434 55.286809645381375 15.00000000000007
    vertex 307.48684506828596 55.342180177661625 15.00000000000007
  endloop
endfacet
facet normal -1.762145753370666e-16 8.325662090429366e-17 1.0
  outer loop
    vertex 317.486845068286 95.39345036688377 14.999999999999899
    vertex 307.48684506828596 55.342180177661625 15.00000000000007
    vertex 308.32800696486913 55.23143911310108 15.00000000000007
  endloop
endfacet
facet normal -1.762145753370666e-16 8.325662090429366e-17 1.0
  outer loop
    vertex 317.486845068286 95.39345036688377 14.999999999999899
    vertex 308.32800696486913 55.23143911310108 15.00000000000007
    vertex 309.1118450682859 54.90676273996104 15.00000000000007
  endloop
endfacet
facet normal -1.762145753370666e-16 8.325662090429366e-17 1.0
  outer loop
    vertex 317.486845068286 95.39345036688377 14.999999999999899
    vertex 309.1118450682859 54.90676273996104 15.00000000000007
    vertex 309.7849421071422 54.39027721651789 15.00000000000007
  endloop
endfacet
facet normal -1.762145753370666e-16 8.325662090429366e-17 1.0
  outer loop
    vertex 317.486845068286 95.39345036688377 14.999999999999899
    vertex 309.7849421071422 54.39027721651789 15.00000000000007
    vertex 310.3014276305853 53.71718017766161 15.00000000000007
  endloop
endfacet
facet normal -1.762145753370666e-16 8.325662090429366e-17 1.0
  outer loop
    vertex 317.486845068286 95.39345036688377 14.999999999999899
    vertex 310.3014276305853 53.71718017766161 15.00000000000007
    vertex 310.6261040037254 52.933342074244806 15.00000000000007
  endloop
endfacet
facet normal -1.762145753370666e-16 8.325662090429366e-17 1.0
  outer loop
    vertex 317.486845068286 95.39345036688377 14.999999999999899
    vertex 310.6261040037254 52.933342074244806 15.00000000000007
    vertex 310.7368450682859 52.09218017766162 15.00000000000007
  endloop
endfacet
facet normal -1.762145753370666e-16 8.325662090429366e-17 1.0
  outer loop
    vertex 317.486845068286 95.39345036688377 14.999999999999899
    vertex 310.7368450682859 52.09218017766162 15.00000000000007
    vertex 317.486845068286 8.790909988439891 15.00000000000007
  endloop
endfacet
facet normal -1.762145753370666e-16 8.325662090429366e-17 1.0
  outer loop
    vertex 317.486845068286 95.39345036688377 14.999999999999899
    vertex 317.486845068286 8.790909988439891 15.00000000000007
    vertex 327.8421841276133 16.73684111833444 14.999999999999899
  endloop
endfacet
facet normal -1.762145753370666e-16 8.325662090429366e-17 1.0
  outer loop
    vertex 317.486845068286 95.39345036688377 14.999999999999899
    vertex 327.8421841276133 16.73684111833444 14.999999999999899
    vertex 327.84218412761345 87.44751923698915 15.00000000000007
  endloop
endfacet
facet normal -1.762145753370666e-16 8.325662090429366e-17 1.0
  outer loop
    vertex 327.84218412761345 87.44751923698915 15.00000000000007
    vertex 327.8421841276133 16.73684111833444 14.999999999999899
    vertex 335.78811525750785 27.0921801776618 15.00000000000007
  endloop
endfacet
facet normal -1.762145753370666e-16 8.325662090429366e-17 1.0
  outer loop
    vertex 327.84218412761345 87.44751923698915 15.00000000000007
    vertex 335.78811525750785 27.0921801776618 15.00000000000007
    vertex 335.78811525750785 77.09218017766175 15.00000000000007
  endloop
endfacet
facet normal -1.762145753370666e-16 8.325662090429366e-17 1.0
  outer loop
    vertex 335.78811525750785 77.09218017766175 15.00000000000007
    vertex 335.78811525750785 27.0921801776618 15.00000000000007
    vertex 340.78313638273943 39.15122792253576 15.00000000000007
  endloop
endfacet
facet normal -1.762145753370666e-16 8.325662090429366e-17 1.0
  outer loop
    vertex 335.78811525750785 77.09218017766175 15.00000000000007
    vertex 340.78313638273943 39.15122792253576 15.00000000000007
    vertex 340.78313638273943 65.0331324327879 15.00000000000007
  endloop
endfacet
facet normal -1.762145753370666e-16 8.325662090429366e-17 1.0
  outer loop
    vertex 340.78313638273943 65.0331324327879 15.00000000000007
    vertex 340.78313638273943 39.15122792253576 15.00000000000007
    vertex 342.4868450682859 52.092180177661845 15.00000000000007
  endloop
endfacet
facet normal -1.762145753370666e-16 8.325662090429366e-17 1.0
  outer loop
    vertex 289.2922156005662 37.51276112595318 15.00000000000007
    vertex 289.23684506828596 67.09218017766156 15.000000000000023
    vertex 289.23684506828596 37.09218017766158 15.00000000000007
  endloop
endfacet
facet normal -1.762145753370666e-16 8.325662090429366e-17 1.0
  outer loop
    vertex 289.23684506828596 67.09218017766156 15.000000000000023
    vertex 289.2922156005662 37.51276112595318 15.00000000000007
    vertex 289.2922156005662 66.67159922936997 15.000000000000023
  endloop
endfacet
facet normal -1.762145753370666e-16 8.325662090429366e-17 1.0
  outer loop
    vertex 289.2922156005662 66.67159922936997 15.000000000000023
    vertex 289.2922156005662 37.51276112595318 15.00000000000007
    vertex 289.34758613284646 37.93334207424478 15.00000000000007
  endloop
endfacet
facet normal -1.762145753370666e-16 8.325662090429366e-17 1.0
  outer loop
    vertex 289.2922156005662 66.67159922936997 15.000000000000023
    vertex 289.34758613284646 37.93334207424478 15.00000000000007
    vertex 289.34758613284646 66.25101828107842 15.000000000000023
  endloop
endfacet
facet normal -1.762145753370666e-16 8.325662090429366e-17 1.0
  outer loop
    vertex 289.34758613284646 66.25101828107842 15.000000000000023
    vertex 289.34758613284646 37.93334207424478 15.00000000000007
    vertex 289.67226250598645 38.717180177661575 15.00000000000007
  endloop
endfacet
facet normal -1.762145753370666e-16 8.325662090429366e-17 1.0
  outer loop
    vertex 289.34758613284646 66.25101828107842 15.000000000000023
    vertex 289.67226250598645 38.717180177661575 15.00000000000007
    vertex 289.67226250598645 65.46718017766162 15.00000000000007
  endloop
endfacet
facet normal -1.762145753370666e-16 8.325662090429366e-17 1.0
  outer loop
    vertex 289.67226250598645 65.46718017766162 15.00000000000007
    vertex 289.67226250598645 38.717180177661575 15.00000000000007
    vertex 290.18874802942963 39.39027721651788 15.00000000000007
  endloop
endfacet
facet normal -1.762145753370666e-16 8.325662090429366e-17 1.0
  outer loop
    vertex 289.67226250598645 65.46718017766162 15.00000000000007
    vertex 290.18874802942963 39.39027721651788 15.00000000000007
    vertex 290.18874802942963 64.79408313880536 15.00000000000007
  endloop
endfacet
facet normal -1.762145753370666e-16 8.325662090429366e-17 1.0
  outer loop
    vertex 290.18874802942963 64.79408313880536 15.00000000000007
    vertex 290.18874802942963 39.39027721651788 15.00000000000007
    vertex 290.8618450682859 39.9067627399609 15.000000000000023
  endloop
endfacet
facet normal -1.762145753370666e-16 8.325662090429366e-17 1.0
  outer loop
    vertex 290.18874802942963 64.79408313880536 15.00000000000007
    vertex 290.8618450682859 39.9067627399609 15.000000000000023
    vertex 290.8618450682859 64.2775976153621 15.00000000000007
  endloop
endfacet
facet normal -1.762145753370666e-16 8.325662090429366e-17 1.0
  outer loop
    vertex 290.8618450682859 64.2775976153621 15.00000000000007
    vertex 290.8618450682859 39.9067627399609 15.000000000000023
    vertex 291.64568317170273 40.23143911310098 15.000000000000023
  endloop
endfacet
facet normal -1.762145753370666e-16 8.325662090429366e-17 1.0
  outer loop
    vertex 290.8618450682859 64.2775976153621 15.00000000000007
    vertex 291.64568317170273 40.23143911310098 15.000000000000023
    vertex 291.64568317170273 63.952921242222054 15.00000000000007
  endloop
endfacet
facet normal -1.762145753370666e-16 8.325662090429366e-17 1.0
  outer loop
    vertex 291.64568317170273 63.952921242222054 15.00000000000007
    vertex 291.64568317170273 40.23143911310098 15.000000000000023
    vertex 292.4868450682859 40.34218017766148 15.000000000000023
  endloop
endfacet
facet normal -1.762145753370666e-16 8.325662090429366e-17 1.0
  outer loop
    vertex 291.64568317170273 63.952921242222054 15.00000000000007
    vertex 292.4868450682859 40.34218017766148 15.000000000000023
    vertex 292.4868450682859 63.84218017766152 15.00000000000007
  endloop
endfacet
facet normal -1.762145753370666e-16 8.325662090429366e-17 1.0
  outer loop
    vertex 292.4868450682859 63.84218017766152 15.00000000000007
    vertex 292.4868450682859 40.34218017766148 15.000000000000023
    vertex 293.32800696486913 40.23143911310098 15.000000000000023
  endloop
endfacet
facet normal -1.762145753370666e-16 8.325662090429366e-17 1.0
  outer loop
    vertex 292.4868450682859 63.84218017766152 15.00000000000007
    vertex 293.32800696486913 40.23143911310098 15.000000000000023
    vertex 293.32800696486913 63.952921242222054 15.00000000000007
  endloop
endfacet
facet normal -1.762145753370666e-16 8.325662090429366e-17 1.0
  outer loop
    vertex 293.32800696486913 63.952921242222054 15.00000000000007
    vertex 293.32800696486913 40.23143911310098 15.000000000000023
    vertex 294.1118450682859 39.90676273996103 15.00000000000007
  endloop
endfacet
facet normal -1.762145753370666e-16 8.325662090429366e-17 1.0
  outer loop
    vertex 293.32800696486913 63.952921242222054 15.00000000000007
    vertex 294.1118450682859 39.90676273996103 15.00000000000007
    vertex 294.1118450682859 64.2775976153622 15.00000000000007
  endloop
endfacet
facet normal -1.762145753370666e-16 8.325662090429366e-17 1.0
  outer loop
    vertex 294.1118450682859 64.2775976153622 15.00000000000007
    vertex 294.1118450682859 39.90676273996103 15.00000000000007
    vertex 294.78494210714223 39.39027721651788 15.00000000000007
  endloop
endfacet
facet normal -1.762145753370666e-16 8.325662090429366e-17 1.0
  outer loop
    vertex 294.1118450682859 64.2775976153622 15.00000000000007
    vertex 294.78494210714223 39.39027721651788 15.00000000000007
    vertex 294.78494210714223 64.79408313880536 15.00000000000007
  endloop
endfacet
facet normal -1.762145753370666e-16 8.325662090429366e-17 1.0
  outer loop
    vertex 294.78494210714223 64.79408313880536 15.00000000000007
    vertex 294.78494210714223 39.39027721651788 15.00000000000007
    vertex 295.30142763058535 38.717180177661575 15.00000000000007
  endloop
endfacet
facet normal -1.762145753370666e-16 8.325662090429366e-17 1.0
  outer loop
    vertex 294.78494210714223 64.79408313880536 15.00000000000007
    vertex 295.30142763058535 38.717180177661575 15.00000000000007
    vertex 295.30142763058535 65.46718017766162 15.00000000000007
  endloop
endfacet
facet normal -1.762145753370666e-16 8.325662090429366e-17 1.0
  outer loop
    vertex 295.30142763058535 65.46718017766162 15.00000000000007
    vertex 295.30142763058535 38.717180177661575 15.00000000000007
    vertex 295.6261040037254 37.93334207424478 15.00000000000007
  endloop
endfacet
facet normal -1.762145753370666e-16 8.325662090429366e-17 1.0
  outer loop
    vertex 295.30142763058535 65.46718017766162 15.00000000000007
    vertex 295.6261040037254 37.93334207424478 15.00000000000007
    vertex 295.6261040037254 66.25101828107842 15.000000000000023
  endloop
endfacet
facet normal -1.762145753370666e-16 8.325662090429366e-17 1.0
  outer loop
    vertex 295.6261040037254 66.25101828107842 15.000000000000023
    vertex 295.6261040037254 37.93334207424478 15.00000000000007
    vertex 295.6814745360057 37.51276112595318 15.00000000000007
  endloop
endfacet
facet normal -1.762145753370666e-16 8.325662090429366e-17 1.0
  outer loop
    vertex 295.6261040037254 66.25101828107842 15.000000000000023
    vertex 295.6814745360057 37.51276112595318 15.00000000000007
    vertex 295.6814745360057 66.67159922936997 15.000000000000023
  endloop
endfacet
facet normal -1.762145753370666e-16 8.325662090429366e-17 1.0
  outer loop
    vertex 295.6814745360057 66.67159922936997 15.000000000000023
    vertex 295.6814745360057 37.51276112595318 15.00000000000007
    vertex 295.7368450682859 37.09218017766158 15.00000000000007
  endloop
endfacet
facet normal -1.762145753370666e-16 8.325662090429366e-17 1.0
  outer loop
    vertex 295.6814745360057 66.67159922936997 15.000000000000023
    vertex 295.7368450682859 37.09218017766158 15.00000000000007
    vertex 295.7368450682859 67.09218017766156 15.000000000000023
  endloop
endfacet
facet normal 0.9914448613738112 -0.13052619222004536 -2.9835897864366834e-15
  outer loop
    vertex 342.4868450682859 52.092180177661845 0.0
    vertex 340.78313638273943 39.15122792253576 15.00000000000007
    vertex 340.7831363827394 39.15122792253576 0.0
  endloop
endfacet
facet normal 0.9914448613738112 -0.13052619222004536 -2.9835897864366834e-15
  outer loop
    vertex 340.78313638273943 39.15122792253576 15.00000000000007
    vertex 342.4868450682859 52.092180177661845 0.0
    vertex 342.4868450682859 52.092180177661845 15.00000000000007
  endloop
endfacet
facet normal -0.9914448613738109 0.13052619222004866 1.7039677098904895e-18
  outer loop
    vertex 244.1905537538323 65.03313243278794 14.999999999999899
    vertex 242.48684506828573 52.092180177661845 13.000000000000073
    vertex 242.48684506828573 52.092180177661845 15.00000000000007
  endloop
endfacet
facet normal -0.9914448613738109 0.13052619222004866 1.7039677098904895e-18
  outer loop
    vertex 242.48684506828573 52.092180177661845 13.000000000000073
    vertex 244.1905537538323 65.03313243278794 14.999999999999899
    vertex 244.1905537538323 65.03313243278794 13.000000000000073
  endloop
endfacet
facet normal 0.5951128791352958 0.8036421225192834 1.4609223873558804e-14
  outer loop
    vertex 242.48684506828573 98.29218017766188 13.000000000000073
    vertex 257.13150600895864 87.44751923698955 0.0
    vertex 242.48684506828573 98.29218017766192 0.0
  endloop
endfacet
facet normal 0.5951128791352958 0.8036421225192834 1.4609223873558804e-14
  outer loop
    vertex 257.13150600895864 87.44751923698955 0.0
    vertex 242.48684506828573 98.29218017766188 13.000000000000073
    vertex 257.1315060089585 87.4475192369892 13.000000000000073
  endloop
endfacet
facet normal 0.9238795325112854 0.38268343236509295 5.786665987456213e-16
  outer loop
    vertex 335.78811525750797 77.0921801776618 0.0
    vertex 340.78313638273943 65.0331324327879 15.00000000000007
    vertex 340.7831363827394 65.0331324327879 0.0
  endloop
endfacet
facet normal 0.9238795325112854 0.38268343236509295 5.786665987456213e-16
  outer loop
    vertex 340.78313638273943 65.0331324327879 15.00000000000007
    vertex 335.78811525750797 77.0921801776618 0.0
    vertex 335.78811525750785 77.09218017766175 15.00000000000007
  endloop
endfacet
facet normal -0.6087614290087184 -0.7933533402912368 1.185781780696837e-15
  outer loop
    vertex 267.486845068286 8.790909988439903 15.00000000000007
    vertex 263.1845459950877 12.092180177661803 9.023892744153272e-14
    vertex 267.486845068286 8.79090998843988 0.0
  endloop
endfacet
facet normal -0.6087614290087184 -0.7933533402912368 1.185781780696837e-15
  outer loop
    vertex 263.1845459950877 12.092180177661803 9.023892744153272e-14
    vertex 267.486845068286 8.790909988439903 15.00000000000007
    vertex 263.1845459950877 12.092180177661826 15.00000000000007
  endloop
endfacet
facet normal 0.30231671599169585 -0.9532075341875956 8.325614111474438e-15
  outer loop
    vertex 257.1315060089585 16.73684111833444 13.000000000000073
    vertex 242.48684506828585 12.092180177661655 9.023892744153272e-14
    vertex 257.13150600895864 16.73684111833444 9.023892744153272e-14
  endloop
endfacet
facet normal 0.30231671599169585 -0.9532075341875956 8.325614111474438e-15
  outer loop
    vertex 242.48684506828585 12.092180177661655 9.023892744153272e-14
    vertex 257.1315060089585 16.73684111833444 13.000000000000073
    vertex 242.48684506828573 12.092180177661826 13.000000000000073
  endloop
endfacet
facet normal -0.1305261922200544 0.99144486137381 1.0995158687878406e-15
  outer loop
    vertex 279.5458928131599 100.3884714921152 15.00000000000007
    vertex 292.486845068286 102.09218017766183 0.0
    vertex 279.5458928131599 100.38847149211524 0.0
  endloop
endfacet
facet normal -0.1305261922200544 0.99144486137381 1.0995158687878406e-15
  outer loop
    vertex 292.486845068286 102.09218017766183 0.0
    vertex 279.5458928131599 100.3884714921152 15.00000000000007
    vertex 292.4868450682859 102.09218017766183 15.00000000000007
  endloop
endfacet
facet normal -7.049916206369851e-16 -1.0 9.761422439588884e-15
  outer loop
    vertex 242.48684506828585 12.092180177661655 9.023892744153272e-14
    vertex 182.48684506828604 12.092180177661826 13.000000000000032
    vertex 182.48684506828604 12.09218017766174 4.511946372076636e-14
  endloop
endfacet
facet normal -7.049916206369851e-16 -1.0 9.761422439588884e-15
  outer loop
    vertex 182.48684506828604 12.092180177661826 13.000000000000032
    vertex 242.48684506828585 12.092180177661655 9.023892744153272e-14
    vertex 242.48684506828573 12.092180177661826 13.000000000000073
  endloop
endfacet
facet normal -2.9694303937855786e-16 -1.481311329272431e-16 1.0
  outer loop
    vertex 182.48684506828604 12.092180177661826 13.000000000000032
    vertex 209.1959485339053 50.19218017766182 13.000000000000083
    vertex 182.48684506828604 98.29218017766188 13.000000000000073
  endloop
endfacet
facet normal -2.9694303937855786e-16 -1.481311329272431e-16 1.0
  outer loop
    vertex 209.1959485339053 50.19218017766182 13.000000000000083
    vertex 182.48684506828604 12.092180177661826 13.000000000000032
    vertex 209.79983929977726 49.405174409152934 13.000000000000073
  endloop
endfacet
facet normal -2.9694303937855786e-16 -1.481311329272431e-16 1.0
  outer loop
    vertex 209.79983929977726 49.405174409152934 13.000000000000073
    vertex 182.48684506828604 12.092180177661826 13.000000000000032
    vertex 242.48684506828573 12.092180177661826 13.000000000000073
  endloop
endfacet
facet normal -2.9694303937855786e-16 -1.481311329272431e-16 1.0
  outer loop
    vertex 182.48684506828604 98.29218017766188 13.000000000000073
    vertex 209.1959485339053 50.19218017766182 13.000000000000083
    vertex 208.81632692838775 51.10866780627226 13.000000000000083
  endloop
endfacet
facet normal -2.9694303937855786e-16 -1.481311329272431e-16 1.0
  outer loop
    vertex 182.48684506828604 98.29218017766188 13.000000000000073
    vertex 208.81632692838775 51.10866780627226 13.000000000000083
    vertex 208.6868450682862 52.092180177661845 13.000000000000083
  endloop
endfacet
facet normal -2.9694303937855786e-16 -1.481311329272431e-16 1.0
  outer loop
    vertex 209.79983929977726 49.405174409152934 13.000000000000073
    vertex 242.48684506828573 12.092180177661826 13.000000000000073
    vertex 210.5868450682861 48.80128364328093 13.000000000000073
  endloop
endfacet
facet normal -2.9694303937855786e-16 -1.481311329272431e-16 1.0
  outer loop
    vertex 210.5868450682861 48.80128364328093 13.000000000000073
    vertex 242.48684506828573 12.092180177661826 13.000000000000073
    vertex 211.50333269689648 48.42166203776335 13.000000000000073
  endloop
endfacet
facet normal -2.9694303937855786e-16 -1.481311329272431e-16 1.0
  outer loop
    vertex 211.50333269689648 48.42166203776335 13.000000000000073
    vertex 242.48684506828573 12.092180177661826 13.000000000000073
    vertex 212.48684506828607 48.2921801776618 13.000000000000073
  endloop
endfacet
facet normal -2.9694303937855786e-16 -1.481311329272431e-16 1.0
  outer loop
    vertex 212.48684506828607 48.2921801776618 13.000000000000073
    vertex 242.48684506828573 12.092180177661826 13.000000000000073
    vertex 213.4703574396756 48.42166203776335 13.000000000000073
  endloop
endfacet
facet normal -2.9694303937855786e-16 -1.481311329272431e-16 1.0
  outer loop
    vertex 213.4703574396756 48.42166203776335 13.000000000000073
    vertex 242.48684506828573 12.092180177661826 13.000000000000073
    vertex 214.38684506828605 48.80128364328093 13.000000000000073
  endloop
endfacet
facet normal -2.9694303937855786e-16 -1.481311329272431e-16 1.0
  outer loop
    vertex 214.38684506828605 48.80128364328093 13.000000000000073
    vertex 242.48684506828573 12.092180177661826 13.000000000000073
    vertex 215.17385083679474 49.405174409152934 13.000000000000073
  endloop
endfacet
facet normal -2.9694303937855786e-16 -1.481311329272431e-16 1.0
  outer loop
    vertex 215.17385083679474 49.405174409152934 13.000000000000073
    vertex 242.48684506828573 12.092180177661826 13.000000000000073
    vertex 215.77774160266685 50.19218017766182 13.000000000000073
  endloop
endfacet
facet normal -2.9694303937855786e-16 -1.481311329272431e-16 1.0
  outer loop
    vertex 215.77774160266685 50.19218017766182 13.000000000000073
    vertex 242.48684506828573 12.092180177661826 13.000000000000073
    vertex 216.15736320818456 51.1086678062723 13.000000000000083
  endloop
endfacet
facet normal -2.9694303937855786e-16 -1.481311329272431e-16 1.0
  outer loop
    vertex 216.15736320818456 51.1086678062723 13.000000000000083
    vertex 242.48684506828573 12.092180177661826 13.000000000000073
    vertex 216.2868450682861 52.092180177661845 13.000000000000083
  endloop
endfacet
facet normal -2.9694303937855786e-16 -1.481311329272431e-16 1.0
  outer loop
    vertex 242.48684506828573 12.092180177661826 13.000000000000073
    vertex 244.1905537538323 39.1512279225358 13.000000000000073
    vertex 242.48684506828573 52.092180177661845 13.000000000000073
  endloop
endfacet
facet normal -2.9694303937855786e-16 -1.481311329272431e-16 1.0
  outer loop
    vertex 244.1905537538323 39.1512279225358 13.000000000000073
    vertex 242.48684506828573 12.092180177661826 13.000000000000073
    vertex 249.18557487906378 27.09218017766182 13.000000000000073
  endloop
endfacet
facet normal -2.9694303937855786e-16 -1.481311329272431e-16 1.0
  outer loop
    vertex 249.18557487906378 27.09218017766182 13.000000000000073
    vertex 242.48684506828573 12.092180177661826 13.000000000000073
    vertex 257.1315060089585 16.73684111833444 13.000000000000073
  endloop
endfacet
facet normal -2.9694303937855786e-16 -1.481311329272431e-16 1.0
  outer loop
    vertex 182.48684506828604 98.29218017766188 13.000000000000073
    vertex 209.1959485339053 53.99218017766186 13.000000000000083
    vertex 242.48684506828573 98.29218017766188 13.000000000000073
  endloop
endfacet
facet normal -2.9694303937855786e-16 -1.481311329272431e-16 1.0
  outer loop
    vertex 209.1959485339053 53.99218017766186 13.000000000000083
    vertex 182.48684506828604 98.29218017766188 13.000000000000073
    vertex 208.81632692838775 53.075692549051425 13.000000000000083
  endloop
endfacet
facet normal -2.9694303937855786e-16 -1.481311329272431e-16 1.0
  outer loop
    vertex 208.81632692838775 53.075692549051425 13.000000000000083
    vertex 182.48684506828604 98.29218017766188 13.000000000000073
    vertex 208.6868450682862 52.092180177661845 13.000000000000083
  endloop
endfacet
facet normal -2.9694303937855786e-16 -1.481311329272431e-16 1.0
  outer loop
    vertex 242.48684506828573 98.29218017766188 13.000000000000073
    vertex 209.1959485339053 53.99218017766186 13.000000000000083
    vertex 209.79983929977726 54.77918594617077 13.000000000000083
  endloop
endfacet
facet normal -2.9694303937855786e-16 -1.481311329272431e-16 1.0
  outer loop
    vertex 242.48684506828573 98.29218017766188 13.000000000000073
    vertex 209.79983929977726 54.77918594617077 13.000000000000083
    vertex 210.5868450682861 55.38307671204273 13.000000000000083
  endloop
endfacet
facet normal -2.9694303937855786e-16 -1.481311329272431e-16 1.0
  outer loop
    vertex 242.48684506828573 98.29218017766188 13.000000000000073
    vertex 210.5868450682861 55.38307671204273 13.000000000000083
    vertex 211.50333269689648 55.76269831756036 13.000000000000083
  endloop
endfacet
facet normal -2.9694303937855786e-16 -1.481311329272431e-16 1.0
  outer loop
    vertex 242.48684506828573 98.29218017766188 13.000000000000073
    vertex 211.50333269689648 55.76269831756036 13.000000000000083
    vertex 212.48684506828607 55.8921801776619 13.000000000000083
  endloop
endfacet
facet normal -2.9694303937855786e-16 -1.481311329272431e-16 1.0
  outer loop
    vertex 242.48684506828573 98.29218017766188 13.000000000000073
    vertex 212.48684506828607 55.8921801776619 13.000000000000083
    vertex 213.4703574396756 55.76269831756036 13.000000000000083
  endloop
endfacet
facet normal -2.9694303937855786e-16 -1.481311329272431e-16 1.0
  outer loop
    vertex 242.48684506828573 98.29218017766188 13.000000000000073
    vertex 213.4703574396756 55.76269831756036 13.000000000000083
    vertex 214.38684506828605 55.38307671204273 13.000000000000083
  endloop
endfacet
facet normal -2.9694303937855786e-16 -1.481311329272431e-16 1.0
  outer loop
    vertex 242.48684506828573 98.29218017766188 13.000000000000073
    vertex 214.38684506828605 55.38307671204273 13.000000000000083
    vertex 215.17385083679474 54.77918594617077 13.000000000000083
  endloop
endfacet
facet normal -2.9694303937855786e-16 -1.481311329272431e-16 1.0
  outer loop
    vertex 242.48684506828573 98.29218017766188 13.000000000000073
    vertex 215.17385083679474 54.77918594617077 13.000000000000083
    vertex 215.77774160266685 53.99218017766186 13.000000000000083
  endloop
endfacet
facet normal -2.9694303937855786e-16 -1.481311329272431e-16 1.0
  outer loop
    vertex 242.48684506828573 98.29218017766188 13.000000000000073
    vertex 215.77774160266685 53.99218017766186 13.000000000000083
    vertex 216.15736320818456 53.075692549051425 13.000000000000083
  endloop
endfacet
facet normal -2.9694303937855786e-16 -1.481311329272431e-16 1.0
  outer loop
    vertex 242.48684506828573 98.29218017766188 13.000000000000073
    vertex 216.15736320818456 53.075692549051425 13.000000000000083
    vertex 216.2868450682861 52.092180177661845 13.000000000000083
  endloop
endfacet
facet normal -2.9694303937855786e-16 -1.481311329272431e-16 1.0
  outer loop
    vertex 242.48684506828573 98.29218017766188 13.000000000000073
    vertex 216.2868450682861 52.092180177661845 13.000000000000083
    vertex 242.48684506828573 12.092180177661826 13.000000000000073
  endloop
endfacet
facet normal -2.9694303937855786e-16 -1.481311329272431e-16 1.0
  outer loop
    vertex 242.48684506828573 98.29218017766188 13.000000000000073
    vertex 242.48684506828573 12.092180177661826 13.000000000000073
    vertex 242.48684506828573 52.092180177661845 13.000000000000073
  endloop
endfacet
facet normal -2.9694303937855786e-16 -1.481311329272431e-16 1.0
  outer loop
    vertex 242.48684506828573 98.29218017766188 13.000000000000073
    vertex 242.48684506828573 52.092180177661845 13.000000000000073
    vertex 244.1905537538323 65.03313243278794 13.000000000000073
  endloop
endfacet
facet normal -2.9694303937855786e-16 -1.481311329272431e-16 1.0
  outer loop
    vertex 242.48684506828573 98.29218017766188 13.000000000000073
    vertex 244.1905537538323 65.03313243278794 13.000000000000073
    vertex 249.18557487906398 77.09218017766185 13.000000000000073
  endloop
endfacet
facet normal -2.9694303937855786e-16 -1.481311329272431e-16 1.0
  outer loop
    vertex 242.48684506828573 98.29218017766188 13.000000000000073
    vertex 249.18557487906398 77.09218017766185 13.000000000000073
    vertex 257.1315060089585 87.4475192369892 13.000000000000073
  endloop
endfacet
facet normal -1.8799776550319315e-16 1.0 2.6030459838903578e-15
  outer loop
    vertex 182.48684506828604 98.29218017766189 4.511946372076636e-14
    vertex 242.48684506828573 98.29218017766188 13.000000000000073
    vertex 242.48684506828573 98.29218017766192 0.0
  endloop
endfacet
facet normal -1.8799776550319315e-16 1.0 2.6030459838903578e-15
  outer loop
    vertex 242.48684506828573 98.29218017766188 13.000000000000073
    vertex 182.48684506828604 98.29218017766189 4.511946372076636e-14
    vertex 182.48684506828604 98.29218017766188 13.000000000000073
  endloop
endfacet
endsolid controller_simple_top
